<?xml version="1.0" encoding="utf-8"?>
<!-- Generator: Adobe Illustrator 16.0.0, SVG Export Plug-In . SVG Version: 6.00 Build 0)  -->
<!DOCTYPE svg PUBLIC "-//W3C//DTD SVG 1.1//EN" "http://www.w3.org/Graphics/SVG/1.1/DTD/svg11.dtd">
<svg version="1.1" id="Layer_1" xmlns="http://www.w3.org/2000/svg" xmlns:xlink="http://www.w3.org/1999/xlink" x="0px" y="0px"
	 width="340px" height="224.211px" viewBox="0 0 340 224.211" enable-background="new 0 0 340 224.211" xml:space="preserve">
<g>
	<path d="M226.728,14.4h-4.811v-0.949h1.969v-5.59l-1.834,0.996l-0.375-0.867l2.438-1.283h0.902v6.744h1.711V14.4z"/>
	<path d="M246.521,14.4h-4.811v-0.949h1.969v-5.59l-1.834,0.996L241.47,7.99l2.438-1.283h0.902v6.744h1.711V14.4z"/>
	<path d="M266.313,14.4h-4.811v-0.949h1.969v-5.59l-1.834,0.996l-0.375-0.867l2.438-1.283h0.902v6.744h1.711V14.4z"/>
	<path d="M286.106,14.4h-4.811v-0.949h1.969v-5.59l-1.834,0.996l-0.375-0.867l2.438-1.283h0.902v6.744h1.711V14.4z"/>
	<path d="M305.899,14.4h-4.811v-0.949h1.969v-5.59l-1.834,0.996l-0.375-0.867l2.438-1.283h0.902v6.744h1.711V14.4z"/>
	<path d="M325.692,14.4h-4.811v-0.949h1.969v-5.59l-1.834,0.996l-0.375-0.867l2.438-1.283h0.902v6.744h1.711V14.4z"/>
	<path d="M29.039,24.973c0,0.586-0.059,1.12-0.176,1.603s-0.295,0.896-0.533,1.242s-0.534,0.613-0.888,0.803
		s-0.769,0.284-1.245,0.284c-0.41,0-0.783-0.077-1.119-0.231s-0.623-0.392-0.861-0.712s-0.422-0.729-0.551-1.225
		s-0.193-1.084-0.193-1.764c0-0.586,0.06-1.121,0.179-1.605s0.297-0.899,0.533-1.245s0.532-0.613,0.888-0.803
		s0.77-0.284,1.242-0.284c0.41,0,0.783,0.077,1.119,0.231s0.623,0.393,0.861,0.715s0.422,0.731,0.551,1.228
		S29.039,24.293,29.039,24.973z M24.503,24.938c0,0.121,0.001,0.242,0.003,0.363s0.009,0.238,0.021,0.352l3.24-2.396
		c-0.059-0.199-0.133-0.381-0.223-0.545s-0.197-0.306-0.322-0.425s-0.268-0.212-0.428-0.278s-0.34-0.1-0.539-0.1
		c-0.266,0-0.507,0.064-0.724,0.193s-0.401,0.321-0.554,0.577s-0.27,0.572-0.352,0.949S24.503,24.442,24.503,24.938z M28.007,25.008
		c0-0.133-0.005-0.265-0.015-0.396s-0.021-0.259-0.032-0.384l-3.24,2.408c0.059,0.203,0.133,0.391,0.223,0.563
		s0.198,0.319,0.325,0.442s0.271,0.219,0.434,0.287s0.347,0.103,0.554,0.103c0.266,0,0.507-0.064,0.724-0.193
		s0.401-0.32,0.554-0.574s0.27-0.569,0.352-0.946S28.007,25.504,28.007,25.008z"/>
	<path d="M48.591,28.799h-4.811V27.85h1.969v-5.59l-1.834,0.996l-0.375-0.867l2.438-1.283h0.902v6.744h1.711V28.799z"/>
	<path d="M68.449,28.799h-5.045v-0.914l1.98-1.969c0.324-0.32,0.588-0.598,0.791-0.832s0.361-0.448,0.475-0.642
		s0.189-0.376,0.229-0.548s0.059-0.357,0.059-0.557c0-0.188-0.025-0.366-0.076-0.536s-0.129-0.319-0.234-0.448
		s-0.242-0.23-0.41-0.305s-0.369-0.111-0.604-0.111c-0.324,0-0.619,0.072-0.885,0.217s-0.51,0.332-0.732,0.563l-0.563-0.674
		c0.289-0.305,0.622-0.549,0.999-0.732s0.815-0.275,1.315-0.275c0.34,0,0.649,0.051,0.929,0.152s0.521,0.248,0.724,0.439
		s0.36,0.426,0.472,0.703s0.167,0.59,0.167,0.938c0,0.293-0.039,0.564-0.117,0.814s-0.196,0.499-0.354,0.747
		s-0.357,0.505-0.598,0.771s-0.524,0.557-0.853,0.873l-1.389,1.354h3.721V28.799z"/>
	<path d="M88.095,26.473c0,0.336-0.068,0.651-0.205,0.946s-0.342,0.553-0.615,0.773s-0.617,0.395-1.031,0.521
		s-0.896,0.19-1.447,0.19c-0.305,0-0.578-0.01-0.82-0.029s-0.469-0.045-0.68-0.076v-0.914c0.242,0.043,0.498,0.076,0.768,0.1
		s0.545,0.035,0.826,0.035c0.383,0,0.71-0.034,0.981-0.103s0.493-0.167,0.665-0.296s0.297-0.285,0.375-0.469
		s0.117-0.391,0.117-0.621c0-0.211-0.047-0.395-0.141-0.551s-0.226-0.287-0.396-0.393s-0.373-0.185-0.609-0.237
		s-0.495-0.079-0.776-0.079h-0.873v-0.838h0.885c0.23,0,0.44-0.03,0.63-0.091s0.352-0.147,0.486-0.261s0.238-0.253,0.311-0.419
		s0.108-0.354,0.108-0.565c0-0.41-0.125-0.709-0.375-0.896s-0.617-0.281-1.102-0.281c-0.258,0-0.523,0.025-0.797,0.076
		s-0.566,0.127-0.879,0.229v-0.891c0.133-0.047,0.274-0.089,0.425-0.126s0.301-0.068,0.451-0.094s0.3-0.045,0.448-0.059
		s0.291-0.021,0.428-0.021c0.406,0,0.764,0.044,1.072,0.132s0.566,0.214,0.773,0.378s0.363,0.363,0.469,0.598
		s0.158,0.498,0.158,0.791c0,0.438-0.112,0.805-0.337,1.102s-0.532,0.533-0.923,0.709c0.199,0.031,0.396,0.094,0.589,0.188
		s0.367,0.214,0.521,0.36s0.279,0.319,0.375,0.519S88.095,26.231,88.095,26.473z"/>
	<path d="M108.415,27.106h-1.307v1.693h-1.043v-1.693h-3.685v-0.896l3.263-5.068h1.465v5.068h1.307V27.106z M106.065,22.125
		l-2.666,4.084h2.666V22.125z"/>
	<path d="M127.634,26.35c0,0.379-0.082,0.725-0.246,1.037s-0.389,0.581-0.676,0.806s-0.627,0.399-1.018,0.524
		s-0.813,0.188-1.266,0.188c-0.113,0-0.234-0.003-0.365-0.009s-0.262-0.014-0.391-0.023s-0.254-0.021-0.377-0.032
		s-0.234-0.025-0.332-0.041v-0.926c0.211,0.051,0.453,0.088,0.725,0.111s0.545,0.035,0.822,0.035c0.313,0,0.594-0.037,0.844-0.111
		s0.463-0.181,0.639-0.319s0.311-0.307,0.404-0.504s0.141-0.419,0.141-0.665c0-0.477-0.17-0.823-0.512-1.04
		s-0.834-0.325-1.475-0.325h-1.453v-3.914h4.125v0.891h-3.164v2.15h0.668c0.367,0,0.725,0.033,1.072,0.1s0.658,0.183,0.93,0.349
		s0.49,0.389,0.656,0.668S127.634,25.928,127.634,26.35z"/>
	<path d="M147.714,26.374c0,0.352-0.063,0.682-0.189,0.99s-0.309,0.577-0.543,0.806s-0.516,0.408-0.846,0.539
		s-0.697,0.196-1.1,0.196c-0.422,0-0.795-0.067-1.119-0.202s-0.596-0.342-0.814-0.621s-0.385-0.632-0.498-1.058
		s-0.17-0.93-0.17-1.512c0-0.391,0.025-0.77,0.076-1.137s0.135-0.713,0.252-1.037s0.273-0.621,0.469-0.891s0.439-0.501,0.73-0.694
		s0.633-0.344,1.027-0.451s0.852-0.161,1.371-0.161h0.756v0.891h-0.82c-0.457,0-0.854,0.055-1.189,0.164s-0.617,0.264-0.844,0.463
		s-0.4,0.439-0.521,0.721s-0.197,0.596-0.229,0.943l-0.023,0.24c0.246-0.145,0.531-0.261,0.854-0.349s0.67-0.132,1.045-0.132
		c0.387,0,0.727,0.057,1.018,0.17s0.533,0.271,0.727,0.472s0.338,0.442,0.436,0.724S147.714,26.038,147.714,26.374z M146.647,26.438
		c0-0.234-0.027-0.446-0.084-0.636s-0.146-0.35-0.268-0.48s-0.273-0.232-0.459-0.305s-0.408-0.108-0.666-0.108
		c-0.148,0-0.299,0.014-0.451,0.041s-0.301,0.065-0.447,0.114s-0.287,0.104-0.42,0.167s-0.254,0.129-0.363,0.199
		c0,0.504,0.035,0.925,0.105,1.263s0.176,0.608,0.314,0.812s0.309,0.348,0.512,0.434s0.438,0.129,0.703,0.129
		c0.223,0,0.428-0.036,0.613-0.108s0.346-0.179,0.48-0.319s0.24-0.312,0.316-0.513S146.647,26.696,146.647,26.438z"/>
	<path d="M167.372,22.09l-3.211,6.709h-1.166l3.334-6.709h-4.137v-0.949h5.18V22.09z"/>
	<path d="M187.206,26.877c0,0.324-0.066,0.612-0.199,0.864s-0.318,0.464-0.557,0.636s-0.52,0.303-0.844,0.393
		s-0.676,0.135-1.055,0.135c-0.418,0-0.785-0.047-1.104-0.141s-0.586-0.225-0.801-0.393s-0.377-0.367-0.486-0.598
		s-0.164-0.484-0.164-0.762c0-0.469,0.131-0.873,0.393-1.213s0.666-0.648,1.213-0.926c-0.5-0.254-0.865-0.536-1.096-0.847
		s-0.346-0.667-0.346-1.069c0-0.246,0.051-0.484,0.152-0.715s0.256-0.436,0.461-0.615s0.461-0.323,0.77-0.431
		s0.672-0.161,1.09-0.161c0.395,0,0.742,0.042,1.041,0.126s0.549,0.204,0.752,0.36s0.355,0.346,0.457,0.568s0.152,0.471,0.152,0.744
		c0,0.445-0.123,0.824-0.371,1.137s-0.602,0.586-1.059,0.82c0.227,0.113,0.438,0.238,0.633,0.375s0.365,0.289,0.51,0.457
		s0.258,0.355,0.338,0.563S187.206,26.624,187.206,26.877z M186.099,26.954c0-0.145-0.023-0.285-0.07-0.422
		s-0.131-0.271-0.252-0.404s-0.283-0.266-0.486-0.398s-0.461-0.27-0.773-0.41c-0.266,0.129-0.488,0.257-0.67,0.384
		s-0.328,0.256-0.439,0.387s-0.191,0.267-0.238,0.407s-0.07,0.289-0.07,0.445c0,0.176,0.039,0.331,0.115,0.466
		s0.18,0.249,0.313,0.343s0.291,0.164,0.475,0.211s0.383,0.07,0.598,0.07c0.207,0,0.402-0.021,0.586-0.064s0.344-0.108,0.479-0.196
		s0.24-0.199,0.318-0.334S186.099,27.141,186.099,26.954z M185.993,22.917c0-0.348-0.121-0.606-0.365-0.776
		s-0.588-0.255-1.029-0.255c-0.438,0-0.777,0.084-1.021,0.252s-0.367,0.42-0.367,0.756c0,0.152,0.029,0.293,0.088,0.422
		s0.15,0.25,0.273,0.363s0.275,0.225,0.459,0.334s0.402,0.221,0.656,0.334c0.441-0.207,0.77-0.423,0.984-0.647
		S185.993,23.213,185.993,22.917z"/>
	<path d="M206.958,24.54c0,0.746-0.09,1.388-0.27,1.925s-0.445,0.979-0.797,1.324s-0.787,0.601-1.307,0.765
		s-1.119,0.246-1.799,0.246h-0.639v-0.891h0.709c0.504,0,0.939-0.051,1.307-0.152s0.674-0.251,0.918-0.448s0.43-0.438,0.559-0.721
		s0.209-0.606,0.24-0.97l0.023-0.24c-0.246,0.145-0.529,0.261-0.85,0.349s-0.668,0.132-1.043,0.132c-0.387,0-0.727-0.057-1.02-0.17
		s-0.535-0.271-0.729-0.475s-0.34-0.444-0.438-0.724s-0.146-0.583-0.146-0.911c0-0.355,0.064-0.688,0.193-0.996
		s0.311-0.577,0.543-0.806s0.51-0.409,0.834-0.542s0.682-0.199,1.072-0.199c0.379,0,0.73,0.063,1.053,0.188s0.6,0.327,0.834,0.606
		s0.418,0.642,0.551,1.087S206.958,23.903,206.958,24.54z M204.274,21.874c-0.219,0-0.42,0.036-0.605,0.108s-0.346,0.178-0.48,0.316
		s-0.242,0.31-0.32,0.513s-0.117,0.436-0.117,0.697c0,0.238,0.029,0.451,0.086,0.639s0.145,0.347,0.264,0.478
		s0.271,0.231,0.459,0.302s0.41,0.105,0.668,0.105c0.145,0,0.295-0.014,0.449-0.041s0.305-0.064,0.451-0.111
		s0.285-0.102,0.418-0.164s0.252-0.129,0.357-0.199c0-0.504-0.037-0.925-0.111-1.263s-0.182-0.609-0.322-0.814
		s-0.311-0.351-0.512-0.437S204.528,21.874,204.274,21.874z"/>
	<path d="M226.968,24.973c0,0.586-0.059,1.12-0.176,1.603s-0.295,0.896-0.533,1.242s-0.533,0.613-0.887,0.803
		s-0.77,0.284-1.246,0.284c-0.41,0-0.783-0.077-1.119-0.231s-0.623-0.392-0.861-0.712s-0.422-0.729-0.551-1.225
		s-0.193-1.084-0.193-1.764c0-0.586,0.061-1.121,0.18-1.605s0.297-0.899,0.533-1.245s0.531-0.613,0.887-0.803
		s0.77-0.284,1.242-0.284c0.41,0,0.783,0.077,1.119,0.231s0.623,0.393,0.861,0.715s0.422,0.731,0.551,1.228
		S226.968,24.293,226.968,24.973z M222.433,24.938c0,0.121,0.002,0.242,0.004,0.363s0.008,0.238,0.02,0.352l3.24-2.396
		c-0.059-0.199-0.133-0.381-0.223-0.545s-0.197-0.306-0.322-0.425s-0.268-0.212-0.428-0.278s-0.34-0.1-0.539-0.1
		c-0.266,0-0.506,0.064-0.723,0.193s-0.402,0.321-0.555,0.577s-0.27,0.572-0.352,0.949S222.433,24.442,222.433,24.938z
		 M225.937,25.008c0-0.133-0.004-0.265-0.014-0.396s-0.021-0.259-0.033-0.384l-3.24,2.408c0.059,0.203,0.133,0.391,0.223,0.563
		s0.199,0.319,0.326,0.442s0.271,0.219,0.434,0.287s0.346,0.103,0.553,0.103c0.266,0,0.508-0.064,0.725-0.193s0.4-0.32,0.553-0.574
		s0.27-0.569,0.352-0.946S225.937,25.504,225.937,25.008z"/>
	<path d="M246.521,28.799h-4.811V27.85h1.969v-5.59l-1.834,0.996l-0.375-0.867l2.438-1.283h0.902v6.744h1.711V28.799z"/>
	<path d="M266.378,28.799h-5.045v-0.914l1.98-1.969c0.324-0.32,0.588-0.598,0.791-0.832s0.361-0.448,0.475-0.642
		s0.189-0.376,0.229-0.548s0.059-0.357,0.059-0.557c0-0.188-0.025-0.366-0.076-0.536s-0.129-0.319-0.234-0.448
		s-0.242-0.23-0.41-0.305s-0.369-0.111-0.604-0.111c-0.324,0-0.619,0.072-0.885,0.217s-0.51,0.332-0.732,0.563l-0.563-0.674
		c0.289-0.305,0.623-0.549,1-0.732s0.814-0.275,1.314-0.275c0.34,0,0.65,0.051,0.93,0.152s0.52,0.248,0.723,0.439
		s0.361,0.426,0.473,0.703s0.166,0.59,0.166,0.938c0,0.293-0.039,0.564-0.117,0.814s-0.195,0.499-0.354,0.747
		s-0.357,0.505-0.598,0.771s-0.525,0.557-0.854,0.873l-1.389,1.354h3.721V28.799z"/>
	<path d="M286.024,26.473c0,0.336-0.068,0.651-0.205,0.946s-0.342,0.553-0.615,0.773s-0.617,0.395-1.031,0.521
		s-0.896,0.19-1.447,0.19c-0.305,0-0.578-0.01-0.82-0.029s-0.469-0.045-0.68-0.076v-0.914c0.242,0.043,0.498,0.076,0.768,0.1
		s0.545,0.035,0.826,0.035c0.383,0,0.711-0.034,0.982-0.103s0.492-0.167,0.664-0.296s0.297-0.285,0.375-0.469
		s0.117-0.391,0.117-0.621c0-0.211-0.047-0.395-0.141-0.551s-0.225-0.287-0.395-0.393s-0.373-0.185-0.609-0.237
		s-0.496-0.079-0.777-0.079h-0.873v-0.838h0.885c0.23,0,0.441-0.03,0.631-0.091s0.352-0.147,0.486-0.261s0.238-0.253,0.311-0.419
		s0.107-0.354,0.107-0.565c0-0.41-0.125-0.709-0.375-0.896s-0.617-0.281-1.102-0.281c-0.258,0-0.523,0.025-0.797,0.076
		s-0.566,0.127-0.879,0.229v-0.891c0.133-0.047,0.275-0.089,0.426-0.126s0.301-0.068,0.451-0.094s0.299-0.045,0.447-0.059
		s0.291-0.021,0.428-0.021c0.406,0,0.764,0.044,1.072,0.132s0.566,0.214,0.773,0.378s0.363,0.363,0.469,0.598
		s0.158,0.498,0.158,0.791c0,0.438-0.111,0.805-0.336,1.102s-0.533,0.533-0.924,0.709c0.199,0.031,0.396,0.094,0.59,0.188
		s0.367,0.214,0.521,0.36s0.279,0.319,0.375,0.519S286.024,26.231,286.024,26.473z"/>
	<path d="M306.345,27.106h-1.307v1.693h-1.043v-1.693h-3.686v-0.896l3.264-5.068h1.465v5.068h1.307V27.106z M303.995,22.125
		l-2.666,4.084h2.666V22.125z"/>
	<path d="M325.563,26.35c0,0.379-0.082,0.725-0.246,1.037s-0.389,0.581-0.676,0.806s-0.627,0.399-1.018,0.524
		s-0.813,0.188-1.266,0.188c-0.113,0-0.234-0.003-0.365-0.009s-0.262-0.014-0.391-0.023s-0.254-0.021-0.377-0.032
		s-0.234-0.025-0.332-0.041v-0.926c0.211,0.051,0.453,0.088,0.725,0.111s0.545,0.035,0.822,0.035c0.313,0,0.594-0.037,0.844-0.111
		s0.463-0.181,0.639-0.319s0.311-0.307,0.404-0.504s0.141-0.419,0.141-0.665c0-0.477-0.17-0.823-0.512-1.04
		s-0.834-0.325-1.475-0.325h-1.453v-3.914h4.125v0.891h-3.164v2.15h0.668c0.367,0,0.725,0.033,1.072,0.1s0.658,0.183,0.93,0.349
		s0.49,0.389,0.656,0.668S325.563,25.928,325.563,26.35z"/>
	<path d="M15.867,40.452h-2.303v2.391h-1.008v-2.391h-2.303v-0.891h2.303v-2.373h1.008v2.373h2.303V40.452z"/>
	<path d="M21.41,40.487h-3.504v-0.961h3.504V40.487z"/>
	<path d="M28.007,40.487h-3.504v-0.961h3.504V40.487z"/>
	<path d="M35.66,40.452h-2.303v2.391h-1.008v-2.391h-2.303v-0.891h2.303v-2.373h1.008v2.373h2.303V40.452z"/>
	<path d="M41.203,40.487h-3.504v-0.961h3.504V40.487z"/>
	<path d="M47.8,40.487h-3.504v-0.961H47.8V40.487z"/>
	<path d="M55.453,40.452H53.15v2.391h-1.008v-2.391h-2.303v-0.891h2.303v-2.373h1.008v2.373h2.303V40.452z"/>
	<path d="M60.996,40.487h-3.504v-0.961h3.504V40.487z"/>
	<path d="M67.593,40.487h-3.504v-0.961h3.504V40.487z"/>
	<path d="M75.246,40.452h-2.303v2.391h-1.008v-2.391h-2.303v-0.891h2.303v-2.373h1.008v2.373h2.303V40.452z"/>
	<path d="M80.789,40.487h-3.504v-0.961h3.504V40.487z"/>
	<path d="M87.386,40.487h-3.504v-0.961h3.504V40.487z"/>
	<path d="M95.039,40.452h-2.303v2.391h-1.008v-2.391h-2.303v-0.891h2.303v-2.373h1.008v2.373h2.303V40.452z"/>
	<path d="M100.582,40.487h-3.504v-0.961h3.504V40.487z"/>
	<path d="M107.179,40.487h-3.504v-0.961h3.504V40.487z"/>
	<path d="M114.831,40.452h-2.303v2.391h-1.008v-2.391h-2.303v-0.891h2.303v-2.373h1.008v2.373h2.303V40.452z"/>
	<path d="M120.374,40.487h-3.504v-0.961h3.504V40.487z"/>
	<path d="M126.972,40.487h-3.504v-0.961h3.504V40.487z"/>
	<path d="M134.624,40.452h-2.303v2.391h-1.008v-2.391h-2.303v-0.891h2.303v-2.373h1.008v2.373h2.303V40.452z"/>
	<path d="M140.167,40.487h-3.504v-0.961h3.504V40.487z"/>
	<path d="M146.765,40.487h-3.504v-0.961h3.504V40.487z"/>
	<path d="M154.417,40.452h-2.303v2.391h-1.008v-2.391h-2.303v-0.891h2.303v-2.373h1.008v2.373h2.303V40.452z"/>
	<path d="M159.96,40.487h-3.504v-0.961h3.504V40.487z"/>
	<path d="M166.558,40.487h-3.504v-0.961h3.504V40.487z"/>
	<path d="M174.21,40.452h-2.303v2.391h-1.008v-2.391h-2.303v-0.891h2.303v-2.373h1.008v2.373h2.303V40.452z"/>
	<path d="M179.753,40.487h-3.504v-0.961h3.504V40.487z"/>
	<path d="M186.351,40.487h-3.504v-0.961h3.504V40.487z"/>
	<path d="M194.003,40.452H191.7v2.391h-1.008v-2.391h-2.303v-0.891h2.303v-2.373h1.008v2.373h2.303V40.452z"/>
	<path d="M199.546,40.487h-3.504v-0.961h3.504V40.487z"/>
	<path d="M206.144,40.487h-3.504v-0.961h3.504V40.487z"/>
	<path d="M213.796,40.452h-2.303v2.391h-1.008v-2.391h-2.303v-0.891h2.303v-2.373h1.008v2.373h2.303V40.452z"/>
	<path d="M219.339,40.487h-3.504v-0.961h3.504V40.487z"/>
	<path d="M225.937,40.487h-3.504v-0.961h3.504V40.487z"/>
	<path d="M233.589,40.452h-2.303v2.391h-1.008v-2.391h-2.303v-0.891h2.303v-2.373h1.008v2.373h2.303V40.452z"/>
	<path d="M239.132,40.487h-3.504v-0.961h3.504V40.487z"/>
	<path d="M245.729,40.487h-3.504v-0.961h3.504V40.487z"/>
	<path d="M253.382,40.452h-2.303v2.391h-1.008v-2.391h-2.303v-0.891h2.303v-2.373h1.008v2.373h2.303V40.452z"/>
	<path d="M258.925,40.487h-3.504v-0.961h3.504V40.487z"/>
	<path d="M265.522,40.487h-3.504v-0.961h3.504V40.487z"/>
	<path d="M273.175,40.452h-2.303v2.391h-1.008v-2.391h-2.303v-0.891h2.303v-2.373h1.008v2.373h2.303V40.452z"/>
	<path d="M278.718,40.487h-3.504v-0.961h3.504V40.487z"/>
	<path d="M285.315,40.487h-3.504v-0.961h3.504V40.487z"/>
	<path d="M292.968,40.452h-2.303v2.391h-1.008v-2.391h-2.303v-0.891h2.303v-2.373h1.008v2.373h2.303V40.452z"/>
	<path d="M298.511,40.487h-3.504v-0.961h3.504V40.487z"/>
	<path d="M305.108,40.487h-3.504v-0.961h3.504V40.487z"/>
	<path d="M312.761,40.452h-2.303v2.391h-1.008v-2.391h-2.303v-0.891h2.303v-2.373h1.008v2.373h2.303V40.452z"/>
	<path d="M318.304,40.487H314.8v-0.961h3.504V40.487z"/>
	<path d="M324.901,40.487h-3.504v-0.961h3.504V40.487z"/>
	<path d="M332.554,40.452h-2.303v2.391h-1.008v-2.391h-2.303v-0.891h2.303v-2.373h1.008v2.373h2.303V40.452z"/>
	<path d="M13.541,60.001H12.58v-12h0.961V60.001z"/>
	<path d="M164.278,50.82h-1.764v-0.879h4.582v0.879h-1.764v5.889h1.764v0.891h-4.582v-0.891h1.764V50.82z"/>
	<path d="M174.274,53.685c0,0.367-0.027,0.719-0.084,1.055s-0.148,0.648-0.273,0.938s-0.287,0.552-0.486,0.788
		s-0.443,0.438-0.732,0.606s-0.625,0.298-1.008,0.39s-0.818,0.138-1.307,0.138h-1.641v-7.658h1.975c1.195,0,2.088,0.308,2.676,0.923
		S174.274,52.419,174.274,53.685z M173.179,53.761c0-0.543-0.051-1.002-0.152-1.377s-0.256-0.678-0.463-0.908
		s-0.467-0.397-0.779-0.501s-0.68-0.155-1.102-0.155h-0.896v5.877h0.779C172.308,56.697,173.179,55.718,173.179,53.761z"/>
	<path d="M330.228,60.001h-0.961v-12h0.961V60.001z"/>
	<path d="M15.867,69.251h-2.303v2.391h-1.008v-2.391h-2.303v-0.891h2.303v-2.373h1.008v2.373h2.303V69.251z"/>
	<path d="M21.41,69.287h-3.504v-0.961h3.504V69.287z"/>
	<path d="M28.007,69.287h-3.504v-0.961h3.504V69.287z"/>
	<path d="M35.66,69.251h-2.303v2.391h-1.008v-2.391h-2.303v-0.891h2.303v-2.373h1.008v2.373h2.303V69.251z"/>
	<path d="M41.203,69.287h-3.504v-0.961h3.504V69.287z"/>
	<path d="M47.8,69.287h-3.504v-0.961H47.8V69.287z"/>
	<path d="M55.453,69.251H53.15v2.391h-1.008v-2.391h-2.303v-0.891h2.303v-2.373h1.008v2.373h2.303V69.251z"/>
	<path d="M60.996,69.287h-3.504v-0.961h3.504V69.287z"/>
	<path d="M67.593,69.287h-3.504v-0.961h3.504V69.287z"/>
	<path d="M75.246,69.251h-2.303v2.391h-1.008v-2.391h-2.303v-0.891h2.303v-2.373h1.008v2.373h2.303V69.251z"/>
	<path d="M80.789,69.287h-3.504v-0.961h3.504V69.287z"/>
	<path d="M87.386,69.287h-3.504v-0.961h3.504V69.287z"/>
	<path d="M95.039,69.251h-2.303v2.391h-1.008v-2.391h-2.303v-0.891h2.303v-2.373h1.008v2.373h2.303V69.251z"/>
	<path d="M100.582,69.287h-3.504v-0.961h3.504V69.287z"/>
	<path d="M107.179,69.287h-3.504v-0.961h3.504V69.287z"/>
	<path d="M114.831,69.251h-2.303v2.391h-1.008v-2.391h-2.303v-0.891h2.303v-2.373h1.008v2.373h2.303V69.251z"/>
	<path d="M120.374,69.287h-3.504v-0.961h3.504V69.287z"/>
	<path d="M126.972,69.287h-3.504v-0.961h3.504V69.287z"/>
	<path d="M134.624,69.251h-2.303v2.391h-1.008v-2.391h-2.303v-0.891h2.303v-2.373h1.008v2.373h2.303V69.251z"/>
	<path d="M140.167,69.287h-3.504v-0.961h3.504V69.287z"/>
	<path d="M146.765,69.287h-3.504v-0.961h3.504V69.287z"/>
	<path d="M154.417,69.251h-2.303v2.391h-1.008v-2.391h-2.303v-0.891h2.303v-2.373h1.008v2.373h2.303V69.251z"/>
	<path d="M159.96,69.287h-3.504v-0.961h3.504V69.287z"/>
	<path d="M166.558,69.287h-3.504v-0.961h3.504V69.287z"/>
	<path d="M174.21,69.251h-2.303v2.391h-1.008v-2.391h-2.303v-0.891h2.303v-2.373h1.008v2.373h2.303V69.251z"/>
	<path d="M179.753,69.287h-3.504v-0.961h3.504V69.287z"/>
	<path d="M186.351,69.287h-3.504v-0.961h3.504V69.287z"/>
	<path d="M194.003,69.251H191.7v2.391h-1.008v-2.391h-2.303v-0.891h2.303v-2.373h1.008v2.373h2.303V69.251z"/>
	<path d="M199.546,69.287h-3.504v-0.961h3.504V69.287z"/>
	<path d="M206.144,69.287h-3.504v-0.961h3.504V69.287z"/>
	<path d="M213.796,69.251h-2.303v2.391h-1.008v-2.391h-2.303v-0.891h2.303v-2.373h1.008v2.373h2.303V69.251z"/>
	<path d="M219.339,69.287h-3.504v-0.961h3.504V69.287z"/>
	<path d="M225.937,69.287h-3.504v-0.961h3.504V69.287z"/>
	<path d="M233.589,69.251h-2.303v2.391h-1.008v-2.391h-2.303v-0.891h2.303v-2.373h1.008v2.373h2.303V69.251z"/>
	<path d="M239.132,69.287h-3.504v-0.961h3.504V69.287z"/>
	<path d="M245.729,69.287h-3.504v-0.961h3.504V69.287z"/>
	<path d="M253.382,69.251h-2.303v2.391h-1.008v-2.391h-2.303v-0.891h2.303v-2.373h1.008v2.373h2.303V69.251z"/>
	<path d="M258.925,69.287h-3.504v-0.961h3.504V69.287z"/>
	<path d="M265.522,69.287h-3.504v-0.961h3.504V69.287z"/>
	<path d="M273.175,69.251h-2.303v2.391h-1.008v-2.391h-2.303v-0.891h2.303v-2.373h1.008v2.373h2.303V69.251z"/>
	<path d="M278.718,69.287h-3.504v-0.961h3.504V69.287z"/>
	<path d="M285.315,69.287h-3.504v-0.961h3.504V69.287z"/>
	<path d="M292.968,69.251h-2.303v2.391h-1.008v-2.391h-2.303v-0.891h2.303v-2.373h1.008v2.373h2.303V69.251z"/>
	<path d="M298.511,69.287h-3.504v-0.961h3.504V69.287z"/>
	<path d="M305.108,69.287h-3.504v-0.961h3.504V69.287z"/>
	<path d="M312.761,69.251h-2.303v2.391h-1.008v-2.391h-2.303v-0.891h2.303v-2.373h1.008v2.373h2.303V69.251z"/>
	<path d="M318.304,69.287H314.8v-0.961h3.504V69.287z"/>
	<path d="M324.901,69.287h-3.504v-0.961h3.504V69.287z"/>
	<path d="M332.554,69.251h-2.303v2.391h-1.008v-2.391h-2.303v-0.891h2.303v-2.373h1.008v2.373h2.303V69.251z"/>
	<path d="M13.541,88.802H12.58v-12h0.961V88.802z"/>
	<path d="M19.095,86.47c-0.406-0.059-0.76-0.188-1.061-0.387s-0.551-0.462-0.75-0.788s-0.348-0.711-0.445-1.154
		s-0.146-0.935-0.146-1.474c0-0.695,0.08-1.297,0.24-1.805s0.378-0.927,0.653-1.257s0.597-0.574,0.964-0.732
		s0.756-0.237,1.166-0.237c0.492,0,0.921,0.089,1.286,0.267s0.669,0.434,0.911,0.768s0.423,0.738,0.542,1.213
		s0.179,1.009,0.179,1.603c0,0.625-0.066,1.173-0.199,1.644S22.121,85,21.89,85.328s-0.502,0.586-0.814,0.773
		s-0.648,0.311-1.008,0.369c0.059,0.344,0.195,0.62,0.41,0.829s0.518,0.313,0.908,0.313c0.188,0,0.372-0.031,0.554-0.094
		s0.366-0.168,0.554-0.316l0.463,0.721c-0.258,0.211-0.523,0.361-0.797,0.451s-0.555,0.135-0.844,0.135
		c-0.313,0-0.6-0.043-0.861-0.129s-0.489-0.214-0.683-0.384s-0.349-0.383-0.466-0.639S19.119,86.806,19.095,86.47z M21.55,82.609
		c0-0.453-0.034-0.866-0.103-1.239s-0.179-0.693-0.331-0.961s-0.349-0.476-0.589-0.624s-0.53-0.223-0.87-0.223
		c-0.328,0-0.61,0.078-0.847,0.234s-0.431,0.368-0.583,0.636s-0.266,0.58-0.34,0.938s-0.111,0.737-0.111,1.14
		c0,0.465,0.035,0.886,0.105,1.263s0.181,0.7,0.331,0.97s0.345,0.478,0.583,0.624s0.525,0.22,0.861,0.22
		c0.328,0,0.611-0.078,0.85-0.234s0.435-0.369,0.589-0.639s0.269-0.585,0.343-0.946S21.55,83.019,21.55,82.609z"/>
	<path d="M29.115,86.4h-1.178l-1.143-2.449c-0.086-0.188-0.174-0.343-0.264-0.466s-0.187-0.221-0.29-0.293s-0.217-0.124-0.34-0.155
		s-0.261-0.047-0.413-0.047h-0.492v3.41h-1.043v-7.658h2.051c0.445,0,0.828,0.049,1.148,0.146s0.583,0.234,0.788,0.41
		s0.355,0.388,0.451,0.636s0.144,0.522,0.144,0.823c0,0.238-0.035,0.464-0.105,0.677s-0.175,0.406-0.313,0.58
		s-0.311,0.324-0.516,0.451s-0.44,0.222-0.706,0.284c0.215,0.074,0.397,0.204,0.548,0.39s0.304,0.433,0.46,0.741L29.115,86.4z
		 M27.445,80.845c0-0.41-0.128-0.717-0.384-0.92s-0.616-0.305-1.081-0.305h-0.984v2.531h0.844c0.246,0,0.468-0.028,0.665-0.085
		s0.365-0.141,0.504-0.252s0.246-0.248,0.322-0.41S27.445,81.056,27.445,80.845z"/>
	<path d="M33.333,88.802h-0.961v-12h0.961V88.802z"/>
	<path d="M62.22,82.521c0,0.688-0.081,1.281-0.243,1.781s-0.381,0.913-0.656,1.239s-0.598,0.568-0.967,0.727
		s-0.759,0.237-1.169,0.237c-0.492,0-0.921-0.089-1.286-0.267s-0.668-0.435-0.908-0.771s-0.419-0.745-0.536-1.228
		s-0.176-1.026-0.176-1.632c0-0.68,0.08-1.27,0.24-1.77s0.378-0.913,0.653-1.239s0.597-0.568,0.964-0.727s0.756-0.237,1.166-0.237
		c0.492,0,0.921,0.09,1.286,0.27s0.669,0.437,0.911,0.771s0.423,0.741,0.542,1.222S62.22,81.919,62.22,82.521z M61.136,82.597
		c0-0.449-0.034-0.86-0.103-1.233s-0.179-0.694-0.331-0.964s-0.349-0.479-0.589-0.627s-0.53-0.223-0.87-0.223
		c-0.328,0-0.61,0.079-0.847,0.237s-0.431,0.373-0.583,0.645s-0.266,0.59-0.34,0.955s-0.111,0.753-0.111,1.163
		c0,0.453,0.035,0.866,0.105,1.239s0.181,0.693,0.331,0.961s0.345,0.476,0.583,0.624s0.525,0.223,0.861,0.223
		c0.328,0,0.611-0.079,0.85-0.237s0.435-0.373,0.589-0.645s0.269-0.589,0.343-0.952S61.136,83.011,61.136,82.597z"/>
	<path d="M68.507,83.353c0,0.523-0.073,0.98-0.22,1.371s-0.349,0.715-0.606,0.973s-0.563,0.451-0.914,0.58s-0.732,0.193-1.143,0.193
		c-0.188,0-0.374-0.01-0.56-0.029s-0.374-0.053-0.565-0.1v2.461h-1.02v-8.285h0.908l0.064,0.984
		c0.293-0.402,0.605-0.685,0.938-0.847s0.691-0.243,1.078-0.243c0.336,0,0.631,0.07,0.885,0.211s0.467,0.339,0.639,0.595
		s0.301,0.564,0.387,0.926S68.507,82.908,68.507,83.353z M67.464,83.4c0-0.309-0.022-0.592-0.067-0.85s-0.116-0.479-0.214-0.662
		s-0.223-0.327-0.375-0.431s-0.334-0.155-0.545-0.155c-0.129,0-0.26,0.021-0.393,0.062s-0.271,0.109-0.413,0.205
		s-0.293,0.223-0.451,0.381s-0.327,0.354-0.507,0.589v2.854c0.188,0.078,0.385,0.14,0.592,0.185s0.41,0.067,0.609,0.067
		c0.551,0,0.982-0.187,1.295-0.56S67.464,84.15,67.464,83.4z"/>
	<path d="M74.648,86.183c-0.266,0.102-0.538,0.177-0.817,0.226s-0.567,0.073-0.864,0.073c-0.93,0-1.646-0.252-2.147-0.756
		s-0.753-1.24-0.753-2.209c0-0.465,0.072-0.887,0.217-1.266s0.348-0.703,0.609-0.973s0.574-0.478,0.938-0.624s0.764-0.22,1.201-0.22
		c0.305,0,0.59,0.021,0.855,0.064s0.52,0.113,0.762,0.211v0.973c-0.254-0.133-0.513-0.229-0.776-0.29s-0.536-0.091-0.817-0.091
		c-0.262,0-0.509,0.05-0.741,0.149s-0.437,0.243-0.612,0.431s-0.314,0.416-0.416,0.686s-0.152,0.574-0.152,0.914
		c0,0.711,0.173,1.243,0.519,1.597s0.825,0.53,1.438,0.53c0.277,0,0.546-0.031,0.806-0.094s0.511-0.156,0.753-0.281V86.183z"/>
	<path d="M81.796,83.412c0,0.457-0.064,0.876-0.193,1.257s-0.314,0.707-0.557,0.979s-0.537,0.482-0.885,0.633
		s-0.742,0.226-1.184,0.226c-0.422,0-0.8-0.065-1.134-0.196s-0.617-0.323-0.85-0.577s-0.41-0.568-0.533-0.943
		s-0.185-0.807-0.185-1.295c0-0.457,0.064-0.874,0.193-1.251s0.314-0.701,0.557-0.973s0.537-0.482,0.885-0.633
		s0.742-0.226,1.184-0.226c0.422,0,0.8,0.065,1.134,0.196s0.617,0.322,0.85,0.574s0.41,0.565,0.533,0.94
		S81.796,82.927,81.796,83.412z M80.753,83.458c0-0.363-0.04-0.681-0.12-0.952s-0.194-0.498-0.343-0.68s-0.329-0.318-0.542-0.41
		s-0.45-0.138-0.712-0.138c-0.305,0-0.565,0.06-0.782,0.179s-0.395,0.278-0.533,0.478s-0.24,0.431-0.305,0.694
		s-0.097,0.54-0.097,0.829c0,0.363,0.04,0.682,0.12,0.955s0.194,0.501,0.343,0.683s0.328,0.318,0.539,0.41s0.449,0.138,0.715,0.138
		c0.305,0,0.565-0.06,0.782-0.179s0.395-0.278,0.533-0.478s0.24-0.431,0.305-0.694S80.753,83.751,80.753,83.458z"/>
	<path d="M82.974,83.582c0-0.5,0.068-0.944,0.205-1.333s0.331-0.717,0.583-0.984s0.555-0.471,0.908-0.609s0.747-0.208,1.181-0.208
		c0.188,0,0.372,0.012,0.554,0.035s0.36,0.061,0.536,0.111v-2.473h1.025V86.4h-0.914l-0.035-1.113
		c-0.285,0.414-0.594,0.721-0.926,0.92s-0.691,0.299-1.078,0.299c-0.336,0-0.632-0.07-0.888-0.211s-0.469-0.339-0.639-0.595
		s-0.298-0.563-0.384-0.923S82.974,84.019,82.974,83.582z M84.017,83.517c0,0.711,0.104,1.241,0.313,1.591s0.505,0.524,0.888,0.524
		c0.258,0,0.53-0.115,0.817-0.346s0.589-0.572,0.905-1.025v-2.73c-0.168-0.078-0.354-0.138-0.557-0.179s-0.404-0.062-0.604-0.062
		c-0.555,0-0.987,0.18-1.298,0.539S84.017,82.751,84.017,83.517z"/>
	<path d="M94.839,83.148c0,0.145-0.002,0.266-0.006,0.363s-0.01,0.189-0.018,0.275h-4.131c0,0.602,0.168,1.063,0.504,1.386
		s0.82,0.483,1.453,0.483c0.172,0,0.344-0.007,0.516-0.021s0.338-0.032,0.498-0.056s0.313-0.05,0.46-0.079s0.282-0.062,0.407-0.097
		v0.838c-0.277,0.078-0.591,0.142-0.94,0.19s-0.712,0.073-1.087,0.073c-0.504,0-0.938-0.068-1.301-0.205s-0.661-0.335-0.894-0.595
		s-0.404-0.578-0.516-0.955s-0.167-0.804-0.167-1.28c0-0.414,0.06-0.806,0.179-1.175s0.293-0.693,0.521-0.973
		s0.509-0.501,0.841-0.665s0.709-0.246,1.131-0.246c0.41,0,0.773,0.064,1.09,0.193s0.583,0.312,0.8,0.548s0.381,0.523,0.492,0.861
		S94.839,82.73,94.839,83.148z M93.779,83.001c0.012-0.262-0.014-0.501-0.076-0.718s-0.159-0.403-0.29-0.56
		s-0.294-0.278-0.489-0.366s-0.422-0.132-0.68-0.132c-0.223,0-0.426,0.043-0.609,0.129s-0.342,0.207-0.475,0.363
		s-0.24,0.344-0.322,0.563s-0.133,0.459-0.152,0.721H93.779z"/>
	<path d="M112.505,88.802h-0.961v-12h0.961V88.802z"/>
	<path d="M121.862,86.4h-1.137l-0.533-1.67h-3.188l-0.539,1.67h-1.084l2.543-7.658h1.43L121.862,86.4z M119.894,83.798l-1.295-4.096
		l-1.295,4.096H119.894z"/>
	<path d="M128.46,86.4h-1.137l-0.533-1.67h-3.188l-0.539,1.67h-1.084l2.543-7.658h1.43L128.46,86.4z M126.491,83.798l-1.295-4.096
		l-1.295,4.096H126.491z"/>
	<path d="M132.298,88.802h-0.961v-12h0.961V88.802z"/>
	<path d="M141.21,79.632h-2.268V86.4h-1.055v-6.768h-2.268v-0.891h5.59V79.632z"/>
	<path d="M147.544,86.113c-0.613,0.254-1.256,0.381-1.928,0.381c-1.082,0-1.912-0.323-2.492-0.97s-0.871-1.603-0.871-2.868
		c0-0.613,0.08-1.168,0.24-1.664s0.389-0.917,0.686-1.263s0.656-0.612,1.078-0.8s0.895-0.281,1.418-0.281
		c0.355,0,0.686,0.03,0.99,0.091s0.598,0.153,0.879,0.278v1.025c-0.277-0.152-0.564-0.269-0.861-0.349s-0.621-0.12-0.973-0.12
		c-0.359,0-0.684,0.067-0.975,0.202s-0.539,0.33-0.742,0.586s-0.359,0.568-0.469,0.938s-0.164,0.79-0.164,1.263
		c0,0.992,0.201,1.74,0.604,2.244s0.992,0.756,1.77,0.756c0.328,0,0.643-0.038,0.943-0.114s0.59-0.183,0.867-0.319V86.113z"/>
	<path d="M152.091,88.802h-0.961v-12h0.961V88.802z"/>
	<path d="M161.067,86.4h-1.178l-1.143-2.449c-0.086-0.188-0.174-0.343-0.264-0.466s-0.186-0.221-0.289-0.293
		s-0.217-0.124-0.34-0.155s-0.262-0.047-0.414-0.047h-0.492v3.41h-1.043v-7.658h2.051c0.445,0,0.828,0.049,1.148,0.146
		s0.584,0.234,0.789,0.41s0.355,0.388,0.451,0.636s0.143,0.522,0.143,0.823c0,0.238-0.035,0.464-0.105,0.677
		s-0.174,0.406-0.313,0.58s-0.311,0.324-0.516,0.451s-0.441,0.222-0.707,0.284c0.215,0.074,0.398,0.204,0.549,0.39
		s0.303,0.433,0.459,0.741L161.067,86.4z M159.397,80.845c0-0.41-0.127-0.717-0.383-0.92s-0.617-0.305-1.082-0.305h-0.984v2.531
		h0.844c0.246,0,0.469-0.028,0.666-0.085s0.365-0.141,0.504-0.252s0.246-0.248,0.322-0.41S159.397,81.056,159.397,80.845z"/>
	<path d="M167.677,82.486c0,0.367-0.027,0.719-0.084,1.055s-0.148,0.648-0.273,0.938s-0.287,0.552-0.486,0.788
		s-0.443,0.438-0.732,0.606s-0.625,0.298-1.008,0.39s-0.818,0.138-1.307,0.138h-1.641v-7.658h1.975c1.195,0,2.088,0.308,2.676,0.923
		S167.677,81.22,167.677,82.486z M166.581,82.562c0-0.543-0.051-1.002-0.152-1.377s-0.256-0.678-0.463-0.908
		s-0.467-0.397-0.779-0.501s-0.68-0.155-1.102-0.155h-0.896v5.877h0.779C165.71,85.498,166.581,84.519,166.581,82.562z"/>
	<path d="M171.884,88.802h-0.961v-12h0.961V88.802z"/>
	<path d="M180.86,86.4h-1.178l-1.143-2.449c-0.086-0.188-0.174-0.343-0.264-0.466s-0.186-0.221-0.289-0.293s-0.217-0.124-0.34-0.155
		s-0.262-0.047-0.414-0.047h-0.492v3.41h-1.043v-7.658h2.051c0.445,0,0.828,0.049,1.148,0.146s0.584,0.234,0.789,0.41
		s0.355,0.388,0.451,0.636s0.143,0.522,0.143,0.823c0,0.238-0.035,0.464-0.105,0.677s-0.174,0.406-0.313,0.58
		s-0.311,0.324-0.516,0.451s-0.441,0.222-0.707,0.284c0.215,0.074,0.398,0.204,0.549,0.39s0.303,0.433,0.459,0.741L180.86,86.4z
		 M179.19,80.845c0-0.41-0.127-0.717-0.383-0.92s-0.617-0.305-1.082-0.305h-0.984v2.531h0.844c0.246,0,0.469-0.028,0.666-0.085
		s0.365-0.141,0.504-0.252s0.246-0.248,0.322-0.41S179.19,81.056,179.19,80.845z"/>
	<path d="M187.839,86.4h-1.137l-0.533-1.67h-3.188l-0.539,1.67h-1.084l2.543-7.658h1.43L187.839,86.4z M185.87,83.798l-1.295-4.096
		l-1.295,4.096H185.87z"/>
	<path d="M191.677,88.802h-0.961v-12h0.961V88.802z"/>
	<path d="M220.153,79.562l-3.908,5.865h3.984V86.4h-5.291v-0.779l3.932-5.93h-3.826v-0.949h5.109V79.562z"/>
	<path d="M251.056,88.802h-0.961v-12h0.961V88.802z"/>
	<path d="M279.825,86.4h-1.178l-1.143-2.449c-0.086-0.188-0.174-0.343-0.264-0.466s-0.186-0.221-0.289-0.293
		s-0.217-0.124-0.34-0.155s-0.262-0.047-0.414-0.047h-0.492v3.41h-1.043v-7.658h2.051c0.445,0,0.828,0.049,1.148,0.146
		s0.584,0.234,0.789,0.41s0.355,0.388,0.451,0.636s0.143,0.522,0.143,0.823c0,0.238-0.035,0.464-0.105,0.677
		s-0.174,0.406-0.313,0.58s-0.311,0.324-0.516,0.451s-0.441,0.222-0.707,0.284c0.215,0.074,0.398,0.204,0.549,0.39
		s0.303,0.433,0.459,0.741L279.825,86.4z M278.155,80.845c0-0.41-0.127-0.717-0.383-0.92s-0.617-0.305-1.082-0.305h-0.984v2.531
		h0.844c0.246,0,0.469-0.028,0.666-0.085s0.365-0.141,0.504-0.252s0.246-0.248,0.322-0.41S278.155,81.056,278.155,80.845z"/>
	<path d="M286.095,86.113c-0.613,0.254-1.256,0.381-1.928,0.381c-1.082,0-1.912-0.323-2.492-0.97s-0.871-1.603-0.871-2.868
		c0-0.613,0.08-1.168,0.24-1.664s0.389-0.917,0.686-1.263s0.656-0.612,1.078-0.8s0.895-0.281,1.418-0.281
		c0.355,0,0.686,0.03,0.99,0.091s0.598,0.153,0.879,0.278v1.025c-0.277-0.152-0.564-0.269-0.861-0.349s-0.621-0.12-0.973-0.12
		c-0.359,0-0.684,0.067-0.975,0.202s-0.539,0.33-0.742,0.586s-0.359,0.568-0.469,0.938s-0.164,0.79-0.164,1.263
		c0,0.992,0.201,1.74,0.604,2.244s0.992,0.756,1.77,0.756c0.328,0,0.643-0.038,0.943-0.114s0.59-0.183,0.867-0.319V86.113z"/>
	<path d="M293.138,82.521c0,0.688-0.08,1.281-0.242,1.781s-0.381,0.913-0.656,1.239s-0.598,0.568-0.967,0.727
		s-0.76,0.237-1.17,0.237c-0.492,0-0.92-0.089-1.285-0.267s-0.668-0.435-0.908-0.771s-0.42-0.745-0.537-1.228
		s-0.176-1.026-0.176-1.632c0-0.68,0.08-1.27,0.24-1.77s0.379-0.913,0.654-1.239s0.596-0.568,0.963-0.727s0.756-0.237,1.166-0.237
		c0.492,0,0.922,0.09,1.287,0.27s0.668,0.437,0.91,0.771s0.424,0.741,0.543,1.222S293.138,81.919,293.138,82.521z M292.054,82.597
		c0-0.449-0.033-0.86-0.102-1.233s-0.18-0.694-0.332-0.964s-0.348-0.479-0.588-0.627s-0.531-0.223-0.871-0.223
		c-0.328,0-0.609,0.079-0.846,0.237s-0.432,0.373-0.584,0.645s-0.266,0.59-0.34,0.955s-0.111,0.753-0.111,1.163
		c0,0.453,0.035,0.866,0.105,1.239s0.182,0.693,0.332,0.961s0.344,0.476,0.582,0.624s0.525,0.223,0.861,0.223
		c0.328,0,0.611-0.079,0.85-0.237s0.436-0.373,0.59-0.645s0.268-0.589,0.342-0.952S292.054,83.011,292.054,82.597z"/>
	<path d="M299.63,82.486c0,0.367-0.027,0.719-0.084,1.055s-0.148,0.648-0.273,0.938s-0.287,0.552-0.486,0.788
		s-0.443,0.438-0.732,0.606s-0.625,0.298-1.008,0.39s-0.818,0.138-1.307,0.138h-1.641v-7.658h1.975c1.195,0,2.088,0.308,2.676,0.923
		S299.63,81.22,299.63,82.486z M298.534,82.562c0-0.543-0.051-1.002-0.152-1.377s-0.256-0.678-0.463-0.908s-0.467-0.397-0.779-0.501
		s-0.68-0.155-1.102-0.155h-0.896v5.877h0.779C297.663,85.498,298.534,84.519,298.534,82.562z"/>
	<path d="M305.589,86.4h-4.354v-7.658h4.354v0.879h-3.311v2.373h3.182v0.879h-3.182v2.637h3.311V86.4z"/>
	<path d="M330.228,88.802h-0.961v-12h0.961V88.802z"/>
	<path d="M15.867,98.051h-2.303v2.391h-1.008v-2.391h-2.303v-0.891h2.303v-2.373h1.008v2.373h2.303V98.051z"/>
	<path d="M21.41,98.086h-3.504v-0.961h3.504V98.086z"/>
	<path d="M28.007,98.086h-3.504v-0.961h3.504V98.086z"/>
	<path d="M35.66,98.051h-2.303v2.391h-1.008v-2.391h-2.303v-0.891h2.303v-2.373h1.008v2.373h2.303V98.051z"/>
	<path d="M41.203,98.086h-3.504v-0.961h3.504V98.086z"/>
	<path d="M47.8,98.086h-3.504v-0.961H47.8V98.086z"/>
	<path d="M55.453,98.051H53.15v2.391h-1.008v-2.391h-2.303v-0.891h2.303v-2.373h1.008v2.373h2.303V98.051z"/>
	<path d="M60.996,98.086h-3.504v-0.961h3.504V98.086z"/>
	<path d="M67.593,98.086h-3.504v-0.961h3.504V98.086z"/>
	<path d="M75.246,98.051h-2.303v2.391h-1.008v-2.391h-2.303v-0.891h2.303v-2.373h1.008v2.373h2.303V98.051z"/>
	<path d="M80.789,98.086h-3.504v-0.961h3.504V98.086z"/>
	<path d="M87.386,98.086h-3.504v-0.961h3.504V98.086z"/>
	<path d="M95.039,98.051h-2.303v2.391h-1.008v-2.391h-2.303v-0.891h2.303v-2.373h1.008v2.373h2.303V98.051z"/>
	<path d="M100.582,98.086h-3.504v-0.961h3.504V98.086z"/>
	<path d="M107.179,98.086h-3.504v-0.961h3.504V98.086z"/>
	<path d="M114.831,98.051h-2.303v2.391h-1.008v-2.391h-2.303v-0.891h2.303v-2.373h1.008v2.373h2.303V98.051z"/>
	<path d="M120.374,98.086h-3.504v-0.961h3.504V98.086z"/>
	<path d="M126.972,98.086h-3.504v-0.961h3.504V98.086z"/>
	<path d="M134.624,98.051h-2.303v2.391h-1.008v-2.391h-2.303v-0.891h2.303v-2.373h1.008v2.373h2.303V98.051z"/>
	<path d="M140.167,98.086h-3.504v-0.961h3.504V98.086z"/>
	<path d="M146.765,98.086h-3.504v-0.961h3.504V98.086z"/>
	<path d="M154.417,98.051h-2.303v2.391h-1.008v-2.391h-2.303v-0.891h2.303v-2.373h1.008v2.373h2.303V98.051z"/>
	<path d="M159.96,98.086h-3.504v-0.961h3.504V98.086z"/>
	<path d="M166.558,98.086h-3.504v-0.961h3.504V98.086z"/>
	<path d="M174.21,98.051h-2.303v2.391h-1.008v-2.391h-2.303v-0.891h2.303v-2.373h1.008v2.373h2.303V98.051z"/>
	<path d="M179.753,98.086h-3.504v-0.961h3.504V98.086z"/>
	<path d="M186.351,98.086h-3.504v-0.961h3.504V98.086z"/>
	<path d="M194.003,98.051H191.7v2.391h-1.008v-2.391h-2.303v-0.891h2.303v-2.373h1.008v2.373h2.303V98.051z"/>
	<path d="M199.546,98.086h-3.504v-0.961h3.504V98.086z"/>
	<path d="M206.144,98.086h-3.504v-0.961h3.504V98.086z"/>
	<path d="M213.796,98.051h-2.303v2.391h-1.008v-2.391h-2.303v-0.891h2.303v-2.373h1.008v2.373h2.303V98.051z"/>
	<path d="M219.339,98.086h-3.504v-0.961h3.504V98.086z"/>
	<path d="M225.937,98.086h-3.504v-0.961h3.504V98.086z"/>
	<path d="M233.589,98.051h-2.303v2.391h-1.008v-2.391h-2.303v-0.891h2.303v-2.373h1.008v2.373h2.303V98.051z"/>
	<path d="M239.132,98.086h-3.504v-0.961h3.504V98.086z"/>
	<path d="M245.729,98.086h-3.504v-0.961h3.504V98.086z"/>
	<path d="M253.382,98.051h-2.303v2.391h-1.008v-2.391h-2.303v-0.891h2.303v-2.373h1.008v2.373h2.303V98.051z"/>
	<path d="M258.925,98.086h-3.504v-0.961h3.504V98.086z"/>
	<path d="M265.522,98.086h-3.504v-0.961h3.504V98.086z"/>
	<path d="M273.175,98.051h-2.303v2.391h-1.008v-2.391h-2.303v-0.891h2.303v-2.373h1.008v2.373h2.303V98.051z"/>
	<path d="M278.718,98.086h-3.504v-0.961h3.504V98.086z"/>
	<path d="M285.315,98.086h-3.504v-0.961h3.504V98.086z"/>
	<path d="M292.968,98.051h-2.303v2.391h-1.008v-2.391h-2.303v-0.891h2.303v-2.373h1.008v2.373h2.303V98.051z"/>
	<path d="M298.511,98.086h-3.504v-0.961h3.504V98.086z"/>
	<path d="M305.108,98.086h-3.504v-0.961h3.504V98.086z"/>
	<path d="M312.761,98.051h-2.303v2.391h-1.008v-2.391h-2.303v-0.891h2.303v-2.373h1.008v2.373h2.303V98.051z"/>
	<path d="M318.304,98.086H314.8v-0.961h3.504V98.086z"/>
	<path d="M324.901,98.086h-3.504v-0.961h3.504V98.086z"/>
	<path d="M332.554,98.051h-2.303v2.391h-1.008v-2.391h-2.303v-0.891h2.303v-2.373h1.008v2.373h2.303V98.051z"/>
	<path d="M13.541,117.602H12.58v-12h0.961V117.602z"/>
	<path d="M151.048,115.27c-0.406-0.059-0.76-0.188-1.061-0.387s-0.551-0.462-0.75-0.788s-0.348-0.711-0.445-1.154
		s-0.146-0.935-0.146-1.474c0-0.695,0.08-1.297,0.24-1.805s0.379-0.927,0.654-1.257s0.596-0.574,0.963-0.732
		s0.756-0.237,1.166-0.237c0.492,0,0.922,0.089,1.287,0.267s0.668,0.434,0.91,0.768s0.424,0.738,0.543,1.213
		s0.178,1.009,0.178,1.603c0,0.625-0.066,1.173-0.199,1.644s-0.314,0.87-0.545,1.198s-0.502,0.586-0.814,0.773
		s-0.648,0.311-1.008,0.369c0.059,0.344,0.195,0.62,0.41,0.829s0.518,0.313,0.908,0.313c0.188,0,0.373-0.031,0.555-0.094
		s0.365-0.168,0.553-0.316l0.463,0.721c-0.258,0.211-0.523,0.361-0.797,0.451s-0.555,0.135-0.844,0.135
		c-0.313,0-0.6-0.043-0.861-0.129s-0.488-0.214-0.682-0.384s-0.35-0.383-0.467-0.639S151.071,115.606,151.048,115.27z
		 M153.503,111.409c0-0.453-0.033-0.866-0.102-1.239s-0.18-0.693-0.332-0.961s-0.348-0.476-0.588-0.624s-0.531-0.223-0.871-0.223
		c-0.328,0-0.609,0.078-0.846,0.234s-0.432,0.368-0.584,0.636s-0.266,0.58-0.34,0.938s-0.111,0.737-0.111,1.14
		c0,0.465,0.035,0.886,0.105,1.263s0.182,0.7,0.332,0.97s0.344,0.478,0.582,0.624s0.525,0.22,0.861,0.22
		c0.328,0,0.611-0.078,0.85-0.234s0.436-0.369,0.59-0.639s0.268-0.585,0.342-0.946S153.503,111.819,153.503,111.409z"/>
	<path d="M161.079,111.286c0,0.367-0.027,0.719-0.084,1.055s-0.148,0.648-0.273,0.938s-0.287,0.552-0.486,0.788
		s-0.443,0.438-0.732,0.606s-0.625,0.298-1.008,0.39s-0.818,0.138-1.307,0.138h-1.641v-7.658h1.975c1.195,0,2.088,0.308,2.676,0.923
		S161.079,110.02,161.079,111.286z M159.983,111.362c0-0.543-0.051-1.002-0.152-1.377s-0.256-0.678-0.463-0.908
		s-0.467-0.397-0.779-0.501s-0.68-0.155-1.102-0.155h-0.896v5.877h0.779C159.112,114.297,159.983,113.319,159.983,111.362z"/>
	<path d="M167.337,114.913c-0.613,0.254-1.256,0.381-1.928,0.381c-1.082,0-1.912-0.323-2.492-0.97s-0.871-1.603-0.871-2.868
		c0-0.613,0.08-1.168,0.24-1.664s0.389-0.917,0.686-1.263s0.656-0.612,1.078-0.8s0.895-0.281,1.418-0.281
		c0.355,0,0.686,0.03,0.99,0.091s0.598,0.153,0.879,0.278v1.025c-0.277-0.152-0.564-0.269-0.861-0.349s-0.621-0.12-0.973-0.12
		c-0.359,0-0.684,0.067-0.975,0.202s-0.539,0.33-0.742,0.586s-0.359,0.568-0.469,0.938s-0.164,0.79-0.164,1.263
		c0,0.992,0.201,1.74,0.604,2.244s0.992,0.756,1.77,0.756c0.328,0,0.643-0.038,0.943-0.114s0.59-0.183,0.867-0.319V114.913z"/>
	<path d="M174.38,111.321c0,0.688-0.08,1.281-0.242,1.781s-0.381,0.913-0.656,1.239s-0.598,0.568-0.967,0.727
		s-0.76,0.237-1.17,0.237c-0.492,0-0.92-0.089-1.285-0.267s-0.668-0.435-0.908-0.771s-0.42-0.745-0.537-1.228
		s-0.176-1.026-0.176-1.632c0-0.68,0.08-1.27,0.24-1.77s0.379-0.913,0.654-1.239s0.596-0.568,0.963-0.727s0.756-0.237,1.166-0.237
		c0.492,0,0.922,0.09,1.287,0.27s0.668,0.437,0.91,0.771s0.424,0.741,0.543,1.222S174.38,110.719,174.38,111.321z M173.296,111.397
		c0-0.449-0.033-0.86-0.102-1.233s-0.18-0.694-0.332-0.964s-0.348-0.479-0.588-0.627s-0.531-0.223-0.871-0.223
		c-0.328,0-0.609,0.079-0.846,0.237s-0.432,0.373-0.584,0.645s-0.266,0.59-0.34,0.955s-0.111,0.753-0.111,1.163
		c0,0.453,0.035,0.866,0.105,1.239s0.182,0.693,0.332,0.961s0.344,0.476,0.582,0.624s0.525,0.223,0.861,0.223
		c0.328,0,0.611-0.079,0.85-0.237s0.436-0.373,0.59-0.645s0.268-0.589,0.342-0.952S173.296,111.811,173.296,111.397z"/>
	<path d="M180.667,112.534c0,0.422-0.059,0.804-0.178,1.146s-0.295,0.633-0.525,0.873s-0.512,0.426-0.846,0.557
		s-0.719,0.196-1.152,0.196c-0.477,0-0.881-0.063-1.213-0.188s-0.602-0.302-0.811-0.53s-0.361-0.503-0.457-0.823
		s-0.145-0.678-0.145-1.072v-5.15h1.043v5.068c0,0.301,0.029,0.564,0.086,0.791s0.148,0.416,0.277,0.568s0.297,0.268,0.502,0.346
		s0.455,0.117,0.752,0.117c0.555,0,0.965-0.16,1.229-0.48s0.395-0.771,0.395-1.354v-5.057h1.043V112.534z"/>
	<path d="M187.206,115.2h-1.359l-2.232-4.775l-0.645-1.535v3.861v2.449h-0.973v-7.658h1.342l2.127,4.523l0.768,1.752v-4.102v-2.174
		h0.973V115.2z"/>
	<path d="M193.991,108.432h-2.268v6.768h-1.055v-6.768h-2.268v-0.891h5.59V108.432z"/>
	<path d="M330.228,117.602h-0.961v-12h0.961V117.602z"/>
	<path d="M15.867,126.851h-2.303v2.391h-1.008v-2.391h-2.303v-0.891h2.303v-2.373h1.008v2.373h2.303V126.851z"/>
	<path d="M21.41,126.886h-3.504v-0.961h3.504V126.886z"/>
	<path d="M28.007,126.886h-3.504v-0.961h3.504V126.886z"/>
	<path d="M35.66,126.851h-2.303v2.391h-1.008v-2.391h-2.303v-0.891h2.303v-2.373h1.008v2.373h2.303V126.851z"/>
	<path d="M41.203,126.886h-3.504v-0.961h3.504V126.886z"/>
	<path d="M47.8,126.886h-3.504v-0.961H47.8V126.886z"/>
	<path d="M55.453,126.851H53.15v2.391h-1.008v-2.391h-2.303v-0.891h2.303v-2.373h1.008v2.373h2.303V126.851z"/>
	<path d="M60.996,126.886h-3.504v-0.961h3.504V126.886z"/>
	<path d="M67.593,126.886h-3.504v-0.961h3.504V126.886z"/>
	<path d="M75.246,126.851h-2.303v2.391h-1.008v-2.391h-2.303v-0.891h2.303v-2.373h1.008v2.373h2.303V126.851z"/>
	<path d="M80.789,126.886h-3.504v-0.961h3.504V126.886z"/>
	<path d="M87.386,126.886h-3.504v-0.961h3.504V126.886z"/>
	<path d="M95.039,126.851h-2.303v2.391h-1.008v-2.391h-2.303v-0.891h2.303v-2.373h1.008v2.373h2.303V126.851z"/>
	<path d="M100.582,126.886h-3.504v-0.961h3.504V126.886z"/>
	<path d="M107.179,126.886h-3.504v-0.961h3.504V126.886z"/>
	<path d="M114.831,126.851h-2.303v2.391h-1.008v-2.391h-2.303v-0.891h2.303v-2.373h1.008v2.373h2.303V126.851z"/>
	<path d="M120.374,126.886h-3.504v-0.961h3.504V126.886z"/>
	<path d="M126.972,126.886h-3.504v-0.961h3.504V126.886z"/>
	<path d="M134.624,126.851h-2.303v2.391h-1.008v-2.391h-2.303v-0.891h2.303v-2.373h1.008v2.373h2.303V126.851z"/>
	<path d="M140.167,126.886h-3.504v-0.961h3.504V126.886z"/>
	<path d="M146.765,126.886h-3.504v-0.961h3.504V126.886z"/>
	<path d="M154.417,126.851h-2.303v2.391h-1.008v-2.391h-2.303v-0.891h2.303v-2.373h1.008v2.373h2.303V126.851z"/>
	<path d="M159.96,126.886h-3.504v-0.961h3.504V126.886z"/>
	<path d="M166.558,126.886h-3.504v-0.961h3.504V126.886z"/>
	<path d="M174.21,126.851h-2.303v2.391h-1.008v-2.391h-2.303v-0.891h2.303v-2.373h1.008v2.373h2.303V126.851z"/>
	<path d="M179.753,126.886h-3.504v-0.961h3.504V126.886z"/>
	<path d="M186.351,126.886h-3.504v-0.961h3.504V126.886z"/>
	<path d="M194.003,126.851H191.7v2.391h-1.008v-2.391h-2.303v-0.891h2.303v-2.373h1.008v2.373h2.303V126.851z"/>
	<path d="M199.546,126.886h-3.504v-0.961h3.504V126.886z"/>
	<path d="M206.144,126.886h-3.504v-0.961h3.504V126.886z"/>
	<path d="M213.796,126.851h-2.303v2.391h-1.008v-2.391h-2.303v-0.891h2.303v-2.373h1.008v2.373h2.303V126.851z"/>
	<path d="M219.339,126.886h-3.504v-0.961h3.504V126.886z"/>
	<path d="M225.937,126.886h-3.504v-0.961h3.504V126.886z"/>
	<path d="M233.589,126.851h-2.303v2.391h-1.008v-2.391h-2.303v-0.891h2.303v-2.373h1.008v2.373h2.303V126.851z"/>
	<path d="M239.132,126.886h-3.504v-0.961h3.504V126.886z"/>
	<path d="M245.729,126.886h-3.504v-0.961h3.504V126.886z"/>
	<path d="M253.382,126.851h-2.303v2.391h-1.008v-2.391h-2.303v-0.891h2.303v-2.373h1.008v2.373h2.303V126.851z"/>
	<path d="M258.925,126.886h-3.504v-0.961h3.504V126.886z"/>
	<path d="M265.522,126.886h-3.504v-0.961h3.504V126.886z"/>
	<path d="M273.175,126.851h-2.303v2.391h-1.008v-2.391h-2.303v-0.891h2.303v-2.373h1.008v2.373h2.303V126.851z"/>
	<path d="M278.718,126.886h-3.504v-0.961h3.504V126.886z"/>
	<path d="M285.315,126.886h-3.504v-0.961h3.504V126.886z"/>
	<path d="M292.968,126.851h-2.303v2.391h-1.008v-2.391h-2.303v-0.891h2.303v-2.373h1.008v2.373h2.303V126.851z"/>
	<path d="M298.511,126.886h-3.504v-0.961h3.504V126.886z"/>
	<path d="M305.108,126.886h-3.504v-0.961h3.504V126.886z"/>
	<path d="M312.761,126.851h-2.303v2.391h-1.008v-2.391h-2.303v-0.891h2.303v-2.373h1.008v2.373h2.303V126.851z"/>
	<path d="M318.304,126.886H314.8v-0.961h3.504V126.886z"/>
	<path d="M324.901,126.886h-3.504v-0.961h3.504V126.886z"/>
	<path d="M332.554,126.851h-2.303v2.391h-1.008v-2.391h-2.303v-0.891h2.303v-2.373h1.008v2.373h2.303V126.851z"/>
	<path d="M13.541,146.401H12.58v-12h0.961V146.401z"/>
	<path d="M154.851,143.999h-1.137l-0.533-1.67h-3.188l-0.539,1.67h-1.084l2.543-7.658h1.43L154.851,143.999z M152.882,141.397
		l-1.295-4.096l-1.295,4.096H152.882z"/>
	<path d="M160.815,143.999h-1.359l-2.232-4.775l-0.645-1.535v3.861v2.449h-0.973v-7.658h1.342l2.127,4.523l0.768,1.752v-4.102
		v-2.174h0.973V143.999z"/>
	<path d="M167.337,143.712c-0.613,0.254-1.256,0.381-1.928,0.381c-1.082,0-1.912-0.322-2.492-0.969s-0.871-1.604-0.871-2.869
		c0-0.613,0.08-1.168,0.24-1.664s0.389-0.916,0.686-1.262s0.656-0.613,1.078-0.801s0.895-0.281,1.418-0.281
		c0.355,0,0.686,0.031,0.99,0.092s0.598,0.152,0.879,0.277v1.025c-0.277-0.152-0.564-0.268-0.861-0.348s-0.621-0.121-0.973-0.121
		c-0.359,0-0.684,0.068-0.975,0.203s-0.539,0.33-0.742,0.586s-0.359,0.568-0.469,0.938s-0.164,0.789-0.164,1.262
		c0,0.992,0.201,1.74,0.604,2.244s0.992,0.756,1.77,0.756c0.328,0,0.643-0.037,0.943-0.113s0.59-0.184,0.867-0.32V143.712z"/>
	<path d="M174.38,140.12c0,0.688-0.08,1.281-0.242,1.781s-0.381,0.914-0.656,1.24s-0.598,0.568-0.967,0.727s-0.76,0.236-1.17,0.236
		c-0.492,0-0.92-0.088-1.285-0.266s-0.668-0.436-0.908-0.771s-0.42-0.744-0.537-1.227s-0.176-1.027-0.176-1.633
		c0-0.68,0.08-1.27,0.24-1.77s0.379-0.912,0.654-1.238s0.596-0.568,0.963-0.727s0.756-0.238,1.166-0.238
		c0.492,0,0.922,0.09,1.287,0.27s0.668,0.438,0.91,0.771s0.424,0.74,0.543,1.221S174.38,139.519,174.38,140.12z M173.296,140.196
		c0-0.449-0.033-0.859-0.102-1.232s-0.18-0.695-0.332-0.965s-0.348-0.479-0.588-0.627s-0.531-0.223-0.871-0.223
		c-0.328,0-0.609,0.08-0.846,0.238s-0.432,0.373-0.584,0.645s-0.266,0.59-0.34,0.955s-0.111,0.752-0.111,1.162
		c0,0.453,0.035,0.867,0.105,1.24s0.182,0.693,0.332,0.961s0.344,0.475,0.582,0.623s0.525,0.223,0.861,0.223
		c0.328,0,0.611-0.078,0.85-0.236s0.436-0.373,0.59-0.645s0.268-0.59,0.342-0.953S173.296,140.61,173.296,140.196z"/>
	<path d="M180.667,141.333c0,0.422-0.059,0.805-0.178,1.146s-0.295,0.633-0.525,0.873s-0.512,0.426-0.846,0.557
		s-0.719,0.195-1.152,0.195c-0.477,0-0.881-0.063-1.213-0.188s-0.602-0.301-0.811-0.529s-0.361-0.504-0.457-0.824
		s-0.145-0.678-0.145-1.072v-5.15h1.043v5.068c0,0.301,0.029,0.564,0.086,0.791s0.148,0.416,0.277,0.568s0.297,0.268,0.502,0.346
		s0.455,0.117,0.752,0.117c0.555,0,0.965-0.16,1.229-0.48s0.395-0.771,0.395-1.354v-5.057h1.043V141.333z"/>
	<path d="M187.206,143.999h-1.359l-2.232-4.775l-0.645-1.535v3.861v2.449h-0.973v-7.658h1.342l2.127,4.523l0.768,1.752v-4.102
		v-2.174h0.973V143.999z"/>
	<path d="M193.991,137.231h-2.268v6.768h-1.055v-6.768h-2.268v-0.891h5.59V137.231z"/>
	<path d="M330.228,146.401h-0.961v-12h0.961V146.401z"/>
	<path d="M15.867,155.651h-2.303v2.391h-1.008v-2.391h-2.303v-0.891h2.303v-2.373h1.008v2.373h2.303V155.651z"/>
	<path d="M21.41,155.687h-3.504v-0.961h3.504V155.687z"/>
	<path d="M28.007,155.687h-3.504v-0.961h3.504V155.687z"/>
	<path d="M35.66,155.651h-2.303v2.391h-1.008v-2.391h-2.303v-0.891h2.303v-2.373h1.008v2.373h2.303V155.651z"/>
	<path d="M41.203,155.687h-3.504v-0.961h3.504V155.687z"/>
	<path d="M47.8,155.687h-3.504v-0.961H47.8V155.687z"/>
	<path d="M55.453,155.651H53.15v2.391h-1.008v-2.391h-2.303v-0.891h2.303v-2.373h1.008v2.373h2.303V155.651z"/>
	<path d="M60.996,155.687h-3.504v-0.961h3.504V155.687z"/>
	<path d="M67.593,155.687h-3.504v-0.961h3.504V155.687z"/>
	<path d="M75.246,155.651h-2.303v2.391h-1.008v-2.391h-2.303v-0.891h2.303v-2.373h1.008v2.373h2.303V155.651z"/>
	<path d="M80.789,155.687h-3.504v-0.961h3.504V155.687z"/>
	<path d="M87.386,155.687h-3.504v-0.961h3.504V155.687z"/>
	<path d="M95.039,155.651h-2.303v2.391h-1.008v-2.391h-2.303v-0.891h2.303v-2.373h1.008v2.373h2.303V155.651z"/>
	<path d="M100.582,155.687h-3.504v-0.961h3.504V155.687z"/>
	<path d="M107.179,155.687h-3.504v-0.961h3.504V155.687z"/>
	<path d="M114.831,155.651h-2.303v2.391h-1.008v-2.391h-2.303v-0.891h2.303v-2.373h1.008v2.373h2.303V155.651z"/>
	<path d="M120.374,155.687h-3.504v-0.961h3.504V155.687z"/>
	<path d="M126.972,155.687h-3.504v-0.961h3.504V155.687z"/>
	<path d="M134.624,155.651h-2.303v2.391h-1.008v-2.391h-2.303v-0.891h2.303v-2.373h1.008v2.373h2.303V155.651z"/>
	<path d="M140.167,155.687h-3.504v-0.961h3.504V155.687z"/>
	<path d="M146.765,155.687h-3.504v-0.961h3.504V155.687z"/>
	<path d="M154.417,155.651h-2.303v2.391h-1.008v-2.391h-2.303v-0.891h2.303v-2.373h1.008v2.373h2.303V155.651z"/>
	<path d="M159.96,155.687h-3.504v-0.961h3.504V155.687z"/>
	<path d="M166.558,155.687h-3.504v-0.961h3.504V155.687z"/>
	<path d="M174.21,155.651h-2.303v2.391h-1.008v-2.391h-2.303v-0.891h2.303v-2.373h1.008v2.373h2.303V155.651z"/>
	<path d="M179.753,155.687h-3.504v-0.961h3.504V155.687z"/>
	<path d="M186.351,155.687h-3.504v-0.961h3.504V155.687z"/>
	<path d="M194.003,155.651H191.7v2.391h-1.008v-2.391h-2.303v-0.891h2.303v-2.373h1.008v2.373h2.303V155.651z"/>
	<path d="M199.546,155.687h-3.504v-0.961h3.504V155.687z"/>
	<path d="M206.144,155.687h-3.504v-0.961h3.504V155.687z"/>
	<path d="M213.796,155.651h-2.303v2.391h-1.008v-2.391h-2.303v-0.891h2.303v-2.373h1.008v2.373h2.303V155.651z"/>
	<path d="M219.339,155.687h-3.504v-0.961h3.504V155.687z"/>
	<path d="M225.937,155.687h-3.504v-0.961h3.504V155.687z"/>
	<path d="M233.589,155.651h-2.303v2.391h-1.008v-2.391h-2.303v-0.891h2.303v-2.373h1.008v2.373h2.303V155.651z"/>
	<path d="M239.132,155.687h-3.504v-0.961h3.504V155.687z"/>
	<path d="M245.729,155.687h-3.504v-0.961h3.504V155.687z"/>
	<path d="M253.382,155.651h-2.303v2.391h-1.008v-2.391h-2.303v-0.891h2.303v-2.373h1.008v2.373h2.303V155.651z"/>
	<path d="M258.925,155.687h-3.504v-0.961h3.504V155.687z"/>
	<path d="M265.522,155.687h-3.504v-0.961h3.504V155.687z"/>
	<path d="M273.175,155.651h-2.303v2.391h-1.008v-2.391h-2.303v-0.891h2.303v-2.373h1.008v2.373h2.303V155.651z"/>
	<path d="M278.718,155.687h-3.504v-0.961h3.504V155.687z"/>
	<path d="M285.315,155.687h-3.504v-0.961h3.504V155.687z"/>
	<path d="M292.968,155.651h-2.303v2.391h-1.008v-2.391h-2.303v-0.891h2.303v-2.373h1.008v2.373h2.303V155.651z"/>
	<path d="M298.511,155.687h-3.504v-0.961h3.504V155.687z"/>
	<path d="M305.108,155.687h-3.504v-0.961h3.504V155.687z"/>
	<path d="M312.761,155.651h-2.303v2.391h-1.008v-2.391h-2.303v-0.891h2.303v-2.373h1.008v2.373h2.303V155.651z"/>
	<path d="M318.304,155.687H314.8v-0.961h3.504V155.687z"/>
	<path d="M324.901,155.687h-3.504v-0.961h3.504V155.687z"/>
	<path d="M332.554,155.651h-2.303v2.391h-1.008v-2.391h-2.303v-0.891h2.303v-2.373h1.008v2.373h2.303V155.651z"/>
	<path d="M13.541,175.202H12.58v-12h0.961V175.202z"/>
	<path d="M154.218,172.8h-1.359l-2.232-4.775l-0.645-1.535v3.861v2.449h-0.973v-7.658h1.342l2.127,4.523l0.768,1.752v-4.102v-2.174
		h0.973V172.8z"/>
	<path d="M160.751,170.726c0,0.363-0.074,0.682-0.223,0.955s-0.355,0.5-0.621,0.682s-0.584,0.318-0.957,0.408
		s-0.785,0.135-1.234,0.135c-0.203,0-0.404-0.008-0.605-0.023s-0.395-0.035-0.58-0.059s-0.361-0.051-0.525-0.082
		s-0.313-0.064-0.445-0.1v-1.008c0.293,0.109,0.623,0.195,0.988,0.258s0.779,0.094,1.244,0.094c0.336,0,0.623-0.027,0.859-0.08
		s0.43-0.131,0.58-0.234s0.26-0.229,0.328-0.377s0.102-0.318,0.102-0.51c0-0.207-0.057-0.385-0.172-0.531s-0.268-0.277-0.455-0.393
		s-0.4-0.221-0.641-0.316s-0.486-0.193-0.736-0.295s-0.494-0.213-0.734-0.332s-0.455-0.26-0.643-0.422s-0.338-0.352-0.453-0.57
		s-0.174-0.479-0.174-0.779c0-0.262,0.055-0.52,0.164-0.773s0.279-0.48,0.51-0.678s0.527-0.355,0.889-0.477s0.791-0.182,1.291-0.182
		c0.129,0,0.27,0.006,0.42,0.018s0.303,0.027,0.457,0.049s0.307,0.047,0.457,0.074s0.289,0.057,0.418,0.088v0.938
		c-0.301-0.086-0.602-0.152-0.902-0.197s-0.592-0.066-0.873-0.066c-0.598,0-1.037,0.1-1.318,0.299s-0.422,0.467-0.422,0.803
		c0,0.207,0.059,0.385,0.174,0.533s0.266,0.281,0.453,0.398s0.402,0.223,0.643,0.318s0.484,0.195,0.734,0.297
		s0.496,0.213,0.736,0.334s0.453,0.264,0.641,0.43s0.34,0.361,0.455,0.584S160.751,170.421,160.751,170.726z"/>
	<path d="M167.337,172.513c-0.613,0.254-1.256,0.381-1.928,0.381c-1.082,0-1.912-0.324-2.492-0.971s-0.871-1.602-0.871-2.867
		c0-0.613,0.08-1.168,0.24-1.664s0.389-0.918,0.686-1.264s0.656-0.611,1.078-0.799s0.895-0.281,1.418-0.281
		c0.355,0,0.686,0.029,0.99,0.09s0.598,0.154,0.879,0.279v1.025c-0.277-0.152-0.564-0.27-0.861-0.35s-0.621-0.119-0.973-0.119
		c-0.359,0-0.684,0.066-0.975,0.201s-0.539,0.33-0.742,0.586s-0.359,0.568-0.469,0.938s-0.164,0.791-0.164,1.264
		c0,0.992,0.201,1.74,0.604,2.244s0.992,0.756,1.77,0.756c0.328,0,0.643-0.039,0.943-0.115s0.59-0.182,0.867-0.318V172.513z"/>
	<path d="M174.38,168.921c0,0.688-0.08,1.281-0.242,1.781s-0.381,0.912-0.656,1.238s-0.598,0.568-0.967,0.727
		s-0.76,0.238-1.17,0.238c-0.492,0-0.92-0.09-1.285-0.268s-0.668-0.434-0.908-0.77s-0.42-0.746-0.537-1.229
		s-0.176-1.025-0.176-1.631c0-0.68,0.08-1.27,0.24-1.77s0.379-0.914,0.654-1.24s0.596-0.568,0.963-0.727s0.756-0.236,1.166-0.236
		c0.492,0,0.922,0.09,1.287,0.27s0.668,0.436,0.91,0.77s0.424,0.742,0.543,1.223S174.38,168.319,174.38,168.921z M173.296,168.997
		c0-0.449-0.033-0.861-0.102-1.234s-0.18-0.693-0.332-0.963s-0.348-0.479-0.588-0.627s-0.531-0.223-0.871-0.223
		c-0.328,0-0.609,0.078-0.846,0.236s-0.432,0.373-0.584,0.645s-0.266,0.59-0.34,0.955s-0.111,0.754-0.111,1.164
		c0,0.453,0.035,0.865,0.105,1.238s0.182,0.693,0.332,0.961s0.344,0.477,0.582,0.625s0.525,0.223,0.861,0.223
		c0.328,0,0.611-0.08,0.85-0.238s0.436-0.373,0.59-0.645s0.268-0.588,0.342-0.951S173.296,169.411,173.296,168.997z"/>
	<path d="M180.667,170.134c0,0.422-0.059,0.803-0.178,1.145s-0.295,0.633-0.525,0.873s-0.512,0.426-0.846,0.557
		s-0.719,0.197-1.152,0.197c-0.477,0-0.881-0.063-1.213-0.188s-0.602-0.303-0.811-0.531s-0.361-0.502-0.457-0.822
		s-0.145-0.678-0.145-1.072v-5.15h1.043v5.068c0,0.301,0.029,0.564,0.086,0.791s0.148,0.416,0.277,0.568s0.297,0.268,0.502,0.346
		s0.455,0.117,0.752,0.117c0.555,0,0.965-0.16,1.229-0.48s0.395-0.771,0.395-1.354v-5.057h1.043V170.134z"/>
	<path d="M187.206,172.8h-1.359l-2.232-4.775l-0.645-1.535v3.861v2.449h-0.973v-7.658h1.342l2.127,4.523l0.768,1.752v-4.102v-2.174
		h0.973V172.8z"/>
	<path d="M193.991,166.032h-2.268v6.768h-1.055v-6.768h-2.268v-0.891h5.59V166.032z"/>
	<path d="M330.228,175.202h-0.961v-12h0.961V175.202z"/>
	<path d="M15.867,184.452h-2.303v2.391h-1.008v-2.391h-2.303v-0.891h2.303v-2.373h1.008v2.373h2.303V184.452z"/>
	<path d="M21.41,184.487h-3.504v-0.961h3.504V184.487z"/>
	<path d="M28.007,184.487h-3.504v-0.961h3.504V184.487z"/>
	<path d="M35.66,184.452h-2.303v2.391h-1.008v-2.391h-2.303v-0.891h2.303v-2.373h1.008v2.373h2.303V184.452z"/>
	<path d="M41.203,184.487h-3.504v-0.961h3.504V184.487z"/>
	<path d="M47.8,184.487h-3.504v-0.961H47.8V184.487z"/>
	<path d="M55.453,184.452H53.15v2.391h-1.008v-2.391h-2.303v-0.891h2.303v-2.373h1.008v2.373h2.303V184.452z"/>
	<path d="M60.996,184.487h-3.504v-0.961h3.504V184.487z"/>
	<path d="M67.593,184.487h-3.504v-0.961h3.504V184.487z"/>
	<path d="M75.246,184.452h-2.303v2.391h-1.008v-2.391h-2.303v-0.891h2.303v-2.373h1.008v2.373h2.303V184.452z"/>
	<path d="M80.789,184.487h-3.504v-0.961h3.504V184.487z"/>
	<path d="M87.386,184.487h-3.504v-0.961h3.504V184.487z"/>
	<path d="M95.039,184.452h-2.303v2.391h-1.008v-2.391h-2.303v-0.891h2.303v-2.373h1.008v2.373h2.303V184.452z"/>
	<path d="M100.582,184.487h-3.504v-0.961h3.504V184.487z"/>
	<path d="M107.179,184.487h-3.504v-0.961h3.504V184.487z"/>
	<path d="M114.831,184.452h-2.303v2.391h-1.008v-2.391h-2.303v-0.891h2.303v-2.373h1.008v2.373h2.303V184.452z"/>
	<path d="M120.374,184.487h-3.504v-0.961h3.504V184.487z"/>
	<path d="M126.972,184.487h-3.504v-0.961h3.504V184.487z"/>
	<path d="M134.624,184.452h-2.303v2.391h-1.008v-2.391h-2.303v-0.891h2.303v-2.373h1.008v2.373h2.303V184.452z"/>
	<path d="M140.167,184.487h-3.504v-0.961h3.504V184.487z"/>
	<path d="M146.765,184.487h-3.504v-0.961h3.504V184.487z"/>
	<path d="M154.417,184.452h-2.303v2.391h-1.008v-2.391h-2.303v-0.891h2.303v-2.373h1.008v2.373h2.303V184.452z"/>
	<path d="M159.96,184.487h-3.504v-0.961h3.504V184.487z"/>
	<path d="M166.558,184.487h-3.504v-0.961h3.504V184.487z"/>
	<path d="M174.21,184.452h-2.303v2.391h-1.008v-2.391h-2.303v-0.891h2.303v-2.373h1.008v2.373h2.303V184.452z"/>
	<path d="M179.753,184.487h-3.504v-0.961h3.504V184.487z"/>
	<path d="M186.351,184.487h-3.504v-0.961h3.504V184.487z"/>
	<path d="M194.003,184.452H191.7v2.391h-1.008v-2.391h-2.303v-0.891h2.303v-2.373h1.008v2.373h2.303V184.452z"/>
	<path d="M199.546,184.487h-3.504v-0.961h3.504V184.487z"/>
	<path d="M206.144,184.487h-3.504v-0.961h3.504V184.487z"/>
	<path d="M213.796,184.452h-2.303v2.391h-1.008v-2.391h-2.303v-0.891h2.303v-2.373h1.008v2.373h2.303V184.452z"/>
	<path d="M219.339,184.487h-3.504v-0.961h3.504V184.487z"/>
	<path d="M225.937,184.487h-3.504v-0.961h3.504V184.487z"/>
	<path d="M233.589,184.452h-2.303v2.391h-1.008v-2.391h-2.303v-0.891h2.303v-2.373h1.008v2.373h2.303V184.452z"/>
	<path d="M239.132,184.487h-3.504v-0.961h3.504V184.487z"/>
	<path d="M245.729,184.487h-3.504v-0.961h3.504V184.487z"/>
	<path d="M253.382,184.452h-2.303v2.391h-1.008v-2.391h-2.303v-0.891h2.303v-2.373h1.008v2.373h2.303V184.452z"/>
	<path d="M258.925,184.487h-3.504v-0.961h3.504V184.487z"/>
	<path d="M265.522,184.487h-3.504v-0.961h3.504V184.487z"/>
	<path d="M273.175,184.452h-2.303v2.391h-1.008v-2.391h-2.303v-0.891h2.303v-2.373h1.008v2.373h2.303V184.452z"/>
	<path d="M278.718,184.487h-3.504v-0.961h3.504V184.487z"/>
	<path d="M285.315,184.487h-3.504v-0.961h3.504V184.487z"/>
	<path d="M292.968,184.452h-2.303v2.391h-1.008v-2.391h-2.303v-0.891h2.303v-2.373h1.008v2.373h2.303V184.452z"/>
	<path d="M298.511,184.487h-3.504v-0.961h3.504V184.487z"/>
	<path d="M305.108,184.487h-3.504v-0.961h3.504V184.487z"/>
	<path d="M312.761,184.452h-2.303v2.391h-1.008v-2.391h-2.303v-0.891h2.303v-2.373h1.008v2.373h2.303V184.452z"/>
	<path d="M318.304,184.487H314.8v-0.961h3.504V184.487z"/>
	<path d="M324.901,184.487h-3.504v-0.961h3.504V184.487z"/>
	<path d="M332.554,184.452h-2.303v2.391h-1.008v-2.391h-2.303v-0.891h2.303v-2.373h1.008v2.373h2.303V184.452z"/>
	<path d="M13.541,204.001H12.58v-12h0.961V204.001z"/>
	<path d="M154.851,201.599h-1.137l-0.533-1.67h-3.188l-0.539,1.67h-1.084l2.543-7.658h1.43L154.851,201.599z M152.882,198.997
		l-1.295-4.096l-1.295,4.096H152.882z"/>
	<path d="M161.067,201.599h-1.178l-1.143-2.449c-0.086-0.188-0.174-0.342-0.264-0.465s-0.186-0.221-0.289-0.293
		s-0.217-0.125-0.34-0.156s-0.262-0.047-0.414-0.047h-0.492v3.41h-1.043v-7.658h2.051c0.445,0,0.828,0.049,1.148,0.146
		s0.584,0.234,0.789,0.41s0.355,0.389,0.451,0.637s0.143,0.521,0.143,0.822c0,0.238-0.035,0.465-0.105,0.678
		s-0.174,0.406-0.313,0.58s-0.311,0.324-0.516,0.451s-0.441,0.221-0.707,0.283c0.215,0.074,0.398,0.205,0.549,0.391
		s0.303,0.432,0.459,0.74L161.067,201.599z M159.397,196.044c0-0.41-0.127-0.717-0.383-0.92s-0.617-0.305-1.082-0.305h-0.984v2.531
		h0.844c0.246,0,0.469-0.027,0.666-0.084s0.365-0.141,0.504-0.252s0.246-0.248,0.322-0.41S159.397,196.255,159.397,196.044z"/>
	<path d="M167.337,201.312c-0.613,0.254-1.256,0.381-1.928,0.381c-1.082,0-1.912-0.322-2.492-0.969s-0.871-1.604-0.871-2.869
		c0-0.613,0.08-1.168,0.24-1.664s0.389-0.916,0.686-1.262s0.656-0.613,1.078-0.801s0.895-0.281,1.418-0.281
		c0.355,0,0.686,0.031,0.99,0.092s0.598,0.152,0.879,0.277v1.025c-0.277-0.152-0.564-0.268-0.861-0.348s-0.621-0.121-0.973-0.121
		c-0.359,0-0.684,0.068-0.975,0.203s-0.539,0.33-0.742,0.586s-0.359,0.568-0.469,0.938s-0.164,0.789-0.164,1.262
		c0,0.992,0.201,1.74,0.604,2.244s0.992,0.756,1.77,0.756c0.328,0,0.643-0.037,0.943-0.113s0.59-0.184,0.867-0.32V201.312z"/>
	<path d="M174.38,197.72c0,0.688-0.08,1.281-0.242,1.781s-0.381,0.914-0.656,1.24s-0.598,0.568-0.967,0.727s-0.76,0.236-1.17,0.236
		c-0.492,0-0.92-0.088-1.285-0.266s-0.668-0.436-0.908-0.771s-0.42-0.744-0.537-1.227s-0.176-1.027-0.176-1.633
		c0-0.68,0.08-1.27,0.24-1.77s0.379-0.912,0.654-1.238s0.596-0.568,0.963-0.727s0.756-0.238,1.166-0.238
		c0.492,0,0.922,0.09,1.287,0.27s0.668,0.438,0.91,0.771s0.424,0.74,0.543,1.221S174.38,197.118,174.38,197.72z M173.296,197.796
		c0-0.449-0.033-0.859-0.102-1.232s-0.18-0.695-0.332-0.965s-0.348-0.479-0.588-0.627s-0.531-0.223-0.871-0.223
		c-0.328,0-0.609,0.08-0.846,0.238s-0.432,0.373-0.584,0.645s-0.266,0.59-0.34,0.955s-0.111,0.752-0.111,1.162
		c0,0.453,0.035,0.867,0.105,1.24s0.182,0.693,0.332,0.961s0.344,0.475,0.582,0.623s0.525,0.223,0.861,0.223
		c0.328,0,0.611-0.078,0.85-0.236s0.436-0.373,0.59-0.645s0.268-0.59,0.342-0.953S173.296,198.21,173.296,197.796z"/>
	<path d="M180.667,198.933c0,0.422-0.059,0.805-0.178,1.146s-0.295,0.633-0.525,0.873s-0.512,0.426-0.846,0.557
		s-0.719,0.195-1.152,0.195c-0.477,0-0.881-0.063-1.213-0.188s-0.602-0.301-0.811-0.529s-0.361-0.504-0.457-0.824
		s-0.145-0.678-0.145-1.072v-5.15h1.043v5.068c0,0.301,0.029,0.564,0.086,0.791s0.148,0.416,0.277,0.568s0.297,0.268,0.502,0.346
		s0.455,0.117,0.752,0.117c0.555,0,0.965-0.16,1.229-0.48s0.395-0.771,0.395-1.354v-5.057h1.043V198.933z"/>
	<path d="M187.206,201.599h-1.359l-2.232-4.775l-0.645-1.535v3.861v2.449h-0.973v-7.658h1.342l2.127,4.523l0.768,1.752v-4.102
		v-2.174h0.973V201.599z"/>
	<path d="M193.991,194.831h-2.268v6.768h-1.055v-6.768h-2.268v-0.891h5.59V194.831z"/>
	<path d="M330.228,204.001h-0.961v-12h0.961V204.001z"/>
	<path d="M15.867,213.251h-2.303v2.391h-1.008v-2.391h-2.303v-0.891h2.303v-2.373h1.008v2.373h2.303V213.251z"/>
	<path d="M21.41,213.286h-3.504v-0.961h3.504V213.286z"/>
	<path d="M28.007,213.286h-3.504v-0.961h3.504V213.286z"/>
	<path d="M35.66,213.251h-2.303v2.391h-1.008v-2.391h-2.303v-0.891h2.303v-2.373h1.008v2.373h2.303V213.251z"/>
	<path d="M41.203,213.286h-3.504v-0.961h3.504V213.286z"/>
	<path d="M47.8,213.286h-3.504v-0.961H47.8V213.286z"/>
	<path d="M55.453,213.251H53.15v2.391h-1.008v-2.391h-2.303v-0.891h2.303v-2.373h1.008v2.373h2.303V213.251z"/>
	<path d="M60.996,213.286h-3.504v-0.961h3.504V213.286z"/>
	<path d="M67.593,213.286h-3.504v-0.961h3.504V213.286z"/>
	<path d="M75.246,213.251h-2.303v2.391h-1.008v-2.391h-2.303v-0.891h2.303v-2.373h1.008v2.373h2.303V213.251z"/>
	<path d="M80.789,213.286h-3.504v-0.961h3.504V213.286z"/>
	<path d="M87.386,213.286h-3.504v-0.961h3.504V213.286z"/>
	<path d="M95.039,213.251h-2.303v2.391h-1.008v-2.391h-2.303v-0.891h2.303v-2.373h1.008v2.373h2.303V213.251z"/>
	<path d="M100.582,213.286h-3.504v-0.961h3.504V213.286z"/>
	<path d="M107.179,213.286h-3.504v-0.961h3.504V213.286z"/>
	<path d="M114.831,213.251h-2.303v2.391h-1.008v-2.391h-2.303v-0.891h2.303v-2.373h1.008v2.373h2.303V213.251z"/>
	<path d="M120.374,213.286h-3.504v-0.961h3.504V213.286z"/>
	<path d="M126.972,213.286h-3.504v-0.961h3.504V213.286z"/>
	<path d="M134.624,213.251h-2.303v2.391h-1.008v-2.391h-2.303v-0.891h2.303v-2.373h1.008v2.373h2.303V213.251z"/>
	<path d="M140.167,213.286h-3.504v-0.961h3.504V213.286z"/>
	<path d="M146.765,213.286h-3.504v-0.961h3.504V213.286z"/>
	<path d="M154.417,213.251h-2.303v2.391h-1.008v-2.391h-2.303v-0.891h2.303v-2.373h1.008v2.373h2.303V213.251z"/>
	<path d="M159.96,213.286h-3.504v-0.961h3.504V213.286z"/>
	<path d="M166.558,213.286h-3.504v-0.961h3.504V213.286z"/>
	<path d="M174.21,213.251h-2.303v2.391h-1.008v-2.391h-2.303v-0.891h2.303v-2.373h1.008v2.373h2.303V213.251z"/>
	<path d="M179.753,213.286h-3.504v-0.961h3.504V213.286z"/>
	<path d="M186.351,213.286h-3.504v-0.961h3.504V213.286z"/>
	<path d="M194.003,213.251H191.7v2.391h-1.008v-2.391h-2.303v-0.891h2.303v-2.373h1.008v2.373h2.303V213.251z"/>
	<path d="M199.546,213.286h-3.504v-0.961h3.504V213.286z"/>
	<path d="M206.144,213.286h-3.504v-0.961h3.504V213.286z"/>
	<path d="M213.796,213.251h-2.303v2.391h-1.008v-2.391h-2.303v-0.891h2.303v-2.373h1.008v2.373h2.303V213.251z"/>
	<path d="M219.339,213.286h-3.504v-0.961h3.504V213.286z"/>
	<path d="M225.937,213.286h-3.504v-0.961h3.504V213.286z"/>
	<path d="M233.589,213.251h-2.303v2.391h-1.008v-2.391h-2.303v-0.891h2.303v-2.373h1.008v2.373h2.303V213.251z"/>
	<path d="M239.132,213.286h-3.504v-0.961h3.504V213.286z"/>
	<path d="M245.729,213.286h-3.504v-0.961h3.504V213.286z"/>
	<path d="M253.382,213.251h-2.303v2.391h-1.008v-2.391h-2.303v-0.891h2.303v-2.373h1.008v2.373h2.303V213.251z"/>
	<path d="M258.925,213.286h-3.504v-0.961h3.504V213.286z"/>
	<path d="M265.522,213.286h-3.504v-0.961h3.504V213.286z"/>
	<path d="M273.175,213.251h-2.303v2.391h-1.008v-2.391h-2.303v-0.891h2.303v-2.373h1.008v2.373h2.303V213.251z"/>
	<path d="M278.718,213.286h-3.504v-0.961h3.504V213.286z"/>
	<path d="M285.315,213.286h-3.504v-0.961h3.504V213.286z"/>
	<path d="M292.968,213.251h-2.303v2.391h-1.008v-2.391h-2.303v-0.891h2.303v-2.373h1.008v2.373h2.303V213.251z"/>
	<path d="M298.511,213.286h-3.504v-0.961h3.504V213.286z"/>
	<path d="M305.108,213.286h-3.504v-0.961h3.504V213.286z"/>
	<path d="M312.761,213.251h-2.303v2.391h-1.008v-2.391h-2.303v-0.891h2.303v-2.373h1.008v2.373h2.303V213.251z"/>
	<path d="M318.304,213.286H314.8v-0.961h3.504V213.286z"/>
	<path d="M324.901,213.286h-3.504v-0.961h3.504V213.286z"/>
	<path d="M332.554,213.251h-2.303v2.391h-1.008v-2.391h-2.303v-0.891h2.303v-2.373h1.008v2.373h2.303V213.251z"/>
</g>
</svg>
