<?xml version="1.0" encoding="utf-8"?>
<!-- Generator: Adobe Illustrator 16.0.0, SVG Export Plug-In . SVG Version: 6.00 Build 0)  -->
<!DOCTYPE svg PUBLIC "-//W3C//DTD SVG 1.1//EN" "http://www.w3.org/Graphics/SVG/1.1/DTD/svg11.dtd">
<svg version="1.1" id="Layer_1" xmlns="http://www.w3.org/2000/svg" xmlns:xlink="http://www.w3.org/1999/xlink" x="0px" y="0px"
	 width="270.527px" height="122.105px" viewBox="0 0 270.527 122.105" enable-background="new 0 0 270.527 122.105"
	 xml:space="preserve">
<g>
	<path d="M29.237,14.265c0,0.586-0.059,1.12-0.176,1.603s-0.295,0.896-0.533,1.242s-0.534,0.613-0.888,0.803
		s-0.769,0.284-1.245,0.284c-0.41,0-0.783-0.077-1.119-0.231s-0.623-0.392-0.861-0.712s-0.422-0.729-0.551-1.225
		s-0.193-1.084-0.193-1.764c0-0.586,0.06-1.121,0.179-1.605s0.297-0.899,0.533-1.245s0.532-0.613,0.888-0.803
		s0.77-0.284,1.242-0.284c0.41,0,0.783,0.077,1.119,0.231s0.623,0.393,0.861,0.715s0.422,0.731,0.551,1.228
		S29.237,13.585,29.237,14.265z M24.702,14.23c0,0.121,0.001,0.242,0.003,0.363s0.009,0.238,0.021,0.352l3.24-2.396
		c-0.059-0.199-0.133-0.381-0.223-0.545s-0.197-0.306-0.322-0.425s-0.268-0.212-0.428-0.278s-0.34-0.1-0.539-0.1
		c-0.266,0-0.507,0.064-0.724,0.193s-0.401,0.321-0.554,0.577s-0.27,0.572-0.352,0.949S24.702,13.734,24.702,14.23z M28.206,14.3
		c0-0.133-0.005-0.265-0.015-0.396s-0.021-0.259-0.032-0.384l-3.24,2.408c0.059,0.203,0.133,0.391,0.223,0.563
		s0.198,0.319,0.325,0.442s0.271,0.219,0.434,0.287s0.347,0.103,0.554,0.103c0.266,0,0.507-0.064,0.724-0.193
		s0.401-0.32,0.554-0.574s0.27-0.569,0.352-0.946S28.206,14.796,28.206,14.3z"/>
	<path d="M75.204,11.382l-3.211,6.709h-1.166l3.334-6.709h-4.137v-0.949h5.18V11.382z"/>
	<path d="M88.44,16.169c0,0.324-0.066,0.612-0.199,0.864s-0.318,0.464-0.557,0.636s-0.52,0.303-0.844,0.393
		s-0.676,0.135-1.055,0.135c-0.418,0-0.786-0.047-1.104-0.141s-0.585-0.225-0.8-0.393s-0.377-0.367-0.486-0.598
		s-0.164-0.484-0.164-0.762c0-0.469,0.131-0.873,0.393-1.213s0.666-0.648,1.213-0.926c-0.5-0.254-0.865-0.536-1.096-0.847
		s-0.346-0.667-0.346-1.069c0-0.246,0.051-0.484,0.152-0.715s0.255-0.436,0.46-0.615s0.462-0.323,0.771-0.431
		s0.672-0.161,1.09-0.161c0.395,0,0.741,0.042,1.04,0.126s0.55,0.204,0.753,0.36s0.355,0.346,0.457,0.568s0.152,0.471,0.152,0.744
		c0,0.445-0.124,0.824-0.372,1.137s-0.601,0.586-1.058,0.82c0.227,0.113,0.438,0.238,0.633,0.375s0.365,0.289,0.51,0.457
		s0.257,0.355,0.337,0.563S88.44,15.916,88.44,16.169z M87.333,16.246c0-0.145-0.023-0.285-0.07-0.422s-0.131-0.271-0.252-0.404
		s-0.283-0.266-0.486-0.398s-0.461-0.27-0.773-0.41c-0.266,0.129-0.489,0.257-0.671,0.384s-0.328,0.256-0.439,0.387
		s-0.19,0.267-0.237,0.407s-0.07,0.289-0.07,0.445c0,0.176,0.038,0.331,0.114,0.466s0.181,0.249,0.313,0.343
		s0.291,0.164,0.475,0.211s0.383,0.07,0.598,0.07c0.207,0,0.402-0.021,0.586-0.064s0.343-0.108,0.478-0.196s0.241-0.199,0.319-0.334
		S87.333,16.433,87.333,16.246z M87.227,12.208c0-0.348-0.122-0.606-0.366-0.776s-0.587-0.255-1.028-0.255
		c-0.438,0-0.778,0.084-1.022,0.252s-0.366,0.42-0.366,0.756c0,0.152,0.029,0.293,0.088,0.422s0.149,0.25,0.272,0.363
		s0.276,0.225,0.46,0.334s0.402,0.221,0.656,0.334c0.441-0.207,0.77-0.423,0.984-0.647S87.227,12.505,87.227,12.208z"/>
	<path d="M127.961,18.091h-4.811v-0.949h1.969v-5.59l-1.834,0.996l-0.375-0.867l2.438-1.283h0.902v6.744h1.711V18.091z"/>
	<path d="M134.43,15.642c0,0.379-0.082,0.725-0.246,1.037s-0.39,0.581-0.677,0.806s-0.626,0.399-1.017,0.524
		s-0.813,0.188-1.266,0.188c-0.113,0-0.235-0.003-0.366-0.009s-0.261-0.014-0.39-0.023s-0.255-0.021-0.378-0.032
		s-0.233-0.025-0.331-0.041v-0.926c0.211,0.051,0.452,0.088,0.724,0.111s0.546,0.035,0.823,0.035c0.313,0,0.594-0.037,0.844-0.111
		s0.463-0.181,0.639-0.319s0.311-0.307,0.404-0.504s0.141-0.419,0.141-0.665c0-0.477-0.171-0.823-0.513-1.04
		s-0.833-0.325-1.474-0.325h-1.453v-3.914h4.125v0.891h-3.164v2.15h0.668c0.367,0,0.725,0.033,1.072,0.1s0.657,0.183,0.929,0.349
		s0.49,0.389,0.656,0.668S134.43,15.22,134.43,15.642z"/>
	<path d="M147.754,18.091h-4.811v-0.949h1.969v-5.59l-1.834,0.996l-0.375-0.867l2.438-1.283h0.902v6.744h1.711V18.091z"/>
	<path d="M154.51,15.666c0,0.352-0.063,0.682-0.19,0.99s-0.308,0.577-0.542,0.806s-0.517,0.408-0.847,0.539
		s-0.696,0.196-1.099,0.196c-0.422,0-0.795-0.067-1.119-0.202s-0.596-0.342-0.814-0.621s-0.385-0.632-0.498-1.058
		s-0.17-0.93-0.17-1.512c0-0.391,0.025-0.77,0.076-1.137s0.135-0.713,0.252-1.037s0.273-0.621,0.469-0.891s0.438-0.501,0.729-0.694
		s0.634-0.344,1.028-0.451s0.852-0.161,1.371-0.161h0.756v0.891h-0.82c-0.457,0-0.854,0.055-1.189,0.164s-0.617,0.264-0.844,0.463
		s-0.4,0.439-0.521,0.721s-0.197,0.596-0.229,0.943l-0.023,0.24c0.246-0.145,0.53-0.261,0.853-0.349s0.671-0.132,1.046-0.132
		c0.387,0,0.726,0.057,1.017,0.17s0.533,0.271,0.727,0.472s0.339,0.442,0.437,0.724S154.51,15.33,154.51,15.666z M153.444,15.73
		c0-0.234-0.028-0.446-0.085-0.636s-0.146-0.35-0.267-0.48s-0.274-0.232-0.46-0.305s-0.407-0.108-0.665-0.108
		c-0.148,0-0.299,0.014-0.451,0.041s-0.302,0.065-0.448,0.114s-0.286,0.104-0.419,0.167s-0.254,0.129-0.363,0.199
		c0,0.504,0.035,0.925,0.105,1.263s0.175,0.608,0.313,0.812s0.31,0.348,0.513,0.434s0.438,0.129,0.703,0.129
		c0.223,0,0.427-0.036,0.612-0.108s0.346-0.179,0.48-0.319s0.24-0.312,0.316-0.513S153.444,15.988,153.444,15.73z"/>
	<path d="M187.405,18.091h-5.045v-0.914l1.98-1.969c0.324-0.32,0.588-0.598,0.791-0.832s0.361-0.448,0.475-0.642
		s0.189-0.376,0.229-0.548s0.059-0.357,0.059-0.557c0-0.188-0.025-0.366-0.076-0.536s-0.129-0.319-0.234-0.448
		s-0.242-0.23-0.41-0.305s-0.369-0.111-0.604-0.111c-0.324,0-0.619,0.072-0.885,0.217s-0.51,0.332-0.732,0.563l-0.563-0.674
		c0.289-0.305,0.622-0.549,0.999-0.732s0.815-0.275,1.315-0.275c0.34,0,0.649,0.051,0.929,0.152s0.521,0.248,0.724,0.439
		s0.36,0.426,0.472,0.703s0.167,0.59,0.167,0.938c0,0.293-0.039,0.564-0.117,0.814s-0.196,0.499-0.354,0.747
		s-0.357,0.505-0.598,0.771s-0.524,0.557-0.853,0.873l-1.389,1.354h3.721V18.091z"/>
	<path d="M193.856,15.765c0,0.336-0.068,0.651-0.205,0.946s-0.342,0.553-0.615,0.773s-0.617,0.395-1.031,0.521
		s-0.896,0.19-1.447,0.19c-0.305,0-0.578-0.01-0.82-0.029s-0.469-0.045-0.68-0.076v-0.914c0.242,0.043,0.498,0.076,0.768,0.1
		s0.545,0.035,0.826,0.035c0.383,0,0.71-0.034,0.981-0.103s0.493-0.167,0.665-0.296s0.297-0.285,0.375-0.469
		s0.117-0.391,0.117-0.621c0-0.211-0.047-0.395-0.141-0.551s-0.226-0.287-0.396-0.393s-0.373-0.185-0.609-0.237
		s-0.495-0.079-0.776-0.079h-0.873v-0.838h0.885c0.23,0,0.44-0.03,0.63-0.091s0.352-0.147,0.486-0.261s0.238-0.253,0.311-0.419
		s0.108-0.354,0.108-0.565c0-0.41-0.125-0.709-0.375-0.896s-0.617-0.281-1.102-0.281c-0.258,0-0.523,0.025-0.797,0.076
		s-0.566,0.127-0.879,0.229v-0.891c0.133-0.047,0.274-0.089,0.425-0.126s0.301-0.068,0.451-0.094s0.3-0.045,0.448-0.059
		s0.291-0.021,0.428-0.021c0.406,0,0.764,0.044,1.072,0.132s0.566,0.214,0.773,0.378s0.363,0.363,0.469,0.598
		s0.158,0.498,0.158,0.791c0,0.438-0.112,0.805-0.337,1.102s-0.532,0.533-0.923,0.709c0.199,0.031,0.396,0.094,0.589,0.188
		s0.367,0.214,0.521,0.36s0.279,0.319,0.375,0.519S193.856,15.523,193.856,15.765z"/>
	<path d="M207.198,18.091h-5.045v-0.914l1.98-1.969c0.324-0.32,0.588-0.598,0.791-0.832s0.361-0.448,0.475-0.642
		s0.189-0.376,0.229-0.548s0.059-0.357,0.059-0.557c0-0.188-0.025-0.366-0.076-0.536s-0.129-0.319-0.234-0.448
		s-0.242-0.23-0.41-0.305s-0.369-0.111-0.604-0.111c-0.324,0-0.619,0.072-0.885,0.217s-0.51,0.332-0.732,0.563l-0.563-0.674
		c0.289-0.305,0.622-0.549,0.999-0.732s0.815-0.275,1.315-0.275c0.34,0,0.649,0.051,0.929,0.152s0.521,0.248,0.724,0.439
		s0.36,0.426,0.472,0.703s0.167,0.59,0.167,0.938c0,0.293-0.039,0.564-0.117,0.814s-0.196,0.499-0.354,0.747
		s-0.357,0.505-0.598,0.771s-0.524,0.557-0.853,0.873l-1.389,1.354h3.721V18.091z"/>
	<path d="M214.176,16.398h-1.307v1.693h-1.043v-1.693h-3.686v-0.896l3.264-5.068h1.465v5.068h1.307V16.398z M211.827,11.417
		l-2.666,4.084h2.666V11.417z"/>
	<path d="M246.637,15.765c0,0.336-0.068,0.651-0.205,0.946s-0.342,0.553-0.615,0.773s-0.617,0.395-1.031,0.521
		s-0.896,0.19-1.447,0.19c-0.305,0-0.578-0.01-0.82-0.029s-0.469-0.045-0.68-0.076v-0.914c0.242,0.043,0.498,0.076,0.768,0.1
		s0.545,0.035,0.826,0.035c0.383,0,0.71-0.034,0.981-0.103s0.493-0.167,0.665-0.296s0.297-0.285,0.375-0.469
		s0.117-0.391,0.117-0.621c0-0.211-0.047-0.395-0.141-0.551s-0.226-0.287-0.396-0.393s-0.373-0.185-0.609-0.237
		s-0.495-0.079-0.776-0.079h-0.873v-0.838h0.885c0.23,0,0.44-0.03,0.63-0.091s0.352-0.147,0.486-0.261s0.238-0.253,0.311-0.419
		s0.108-0.354,0.108-0.565c0-0.41-0.125-0.709-0.375-0.896s-0.617-0.281-1.102-0.281c-0.258,0-0.523,0.025-0.797,0.076
		s-0.566,0.127-0.879,0.229v-0.891c0.133-0.047,0.274-0.089,0.425-0.126s0.301-0.068,0.451-0.094s0.3-0.045,0.448-0.059
		s0.291-0.021,0.428-0.021c0.406,0,0.764,0.044,1.072,0.132s0.566,0.214,0.773,0.378s0.363,0.363,0.469,0.598
		s0.158,0.498,0.158,0.791c0,0.438-0.112,0.805-0.337,1.102s-0.532,0.533-0.923,0.709c0.199,0.031,0.396,0.094,0.589,0.188
		s0.367,0.214,0.521,0.36s0.279,0.319,0.375,0.519S246.637,15.523,246.637,15.765z"/>
	<path d="M253.317,18.091h-4.811v-0.949h1.969v-5.59l-1.834,0.996l-0.375-0.867l2.438-1.283h0.902v6.744h1.711V18.091z"/>
	<path d="M22.663,29.744H20.36v2.391h-1.008v-2.391h-2.303v-0.891h2.303V26.48h1.008v2.373h2.303V29.744z"/>
	<path d="M28.206,29.779h-3.504v-0.961h3.504V29.779z"/>
	<path d="M34.803,29.779h-3.504v-0.961h3.504V29.779z"/>
	<path d="M41.401,29.779h-3.504v-0.961h3.504V29.779z"/>
	<path d="M47.999,29.779h-3.504v-0.961h3.504V29.779z"/>
	<path d="M54.596,29.779h-3.504v-0.961h3.504V29.779z"/>
	<path d="M61.194,29.779H57.69v-0.961h3.504V29.779z"/>
	<path d="M67.792,29.779h-3.504v-0.961h3.504V29.779z"/>
	<path d="M74.389,29.779h-3.504v-0.961h3.504V29.779z"/>
	<path d="M82.042,29.744h-2.303v2.391h-1.008v-2.391h-2.303v-0.891h2.303V26.48h1.008v2.373h2.303V29.744z"/>
	<path d="M87.584,29.779h-3.504v-0.961h3.504V29.779z"/>
	<path d="M94.182,29.779h-3.504v-0.961h3.504V29.779z"/>
	<path d="M100.78,29.779h-3.504v-0.961h3.504V29.779z"/>
	<path d="M107.377,29.779h-3.504v-0.961h3.504V29.779z"/>
	<path d="M113.975,29.779h-3.504v-0.961h3.504V29.779z"/>
	<path d="M120.573,29.779h-3.504v-0.961h3.504V29.779z"/>
	<path d="M127.17,29.779h-3.504v-0.961h3.504V29.779z"/>
	<path d="M133.768,29.779h-3.504v-0.961h3.504V29.779z"/>
	<path d="M141.42,29.744h-2.303v2.391h-1.008v-2.391h-2.303v-0.891h2.303V26.48h1.008v2.373h2.303V29.744z"/>
	<path d="M146.963,29.779h-3.504v-0.961h3.504V29.779z"/>
	<path d="M153.561,29.779h-3.504v-0.961h3.504V29.779z"/>
	<path d="M160.159,29.779h-3.504v-0.961h3.504V29.779z"/>
	<path d="M166.756,29.779h-3.504v-0.961h3.504V29.779z"/>
	<path d="M173.354,29.779h-3.504v-0.961h3.504V29.779z"/>
	<path d="M179.952,29.779h-3.504v-0.961h3.504V29.779z"/>
	<path d="M186.549,29.779h-3.504v-0.961h3.504V29.779z"/>
	<path d="M193.147,29.779h-3.504v-0.961h3.504V29.779z"/>
	<path d="M200.799,29.744h-2.303v2.391h-1.008v-2.391h-2.303v-0.891h2.303V26.48h1.008v2.373h2.303V29.744z"/>
	<path d="M206.342,29.779h-3.504v-0.961h3.504V29.779z"/>
	<path d="M212.94,29.779h-3.504v-0.961h3.504V29.779z"/>
	<path d="M219.538,29.779h-3.504v-0.961h3.504V29.779z"/>
	<path d="M226.135,29.779h-3.504v-0.961h3.504V29.779z"/>
	<path d="M232.733,29.779h-3.504v-0.961h3.504V29.779z"/>
	<path d="M239.331,29.779h-3.504v-0.961h3.504V29.779z"/>
	<path d="M245.928,29.779h-3.504v-0.961h3.504V29.779z"/>
	<path d="M252.526,29.779h-3.504v-0.961h3.504V29.779z"/>
	<path d="M260.178,29.744h-2.303v2.391h-1.008v-2.391h-2.303v-0.891h2.303V26.48h1.008v2.373h2.303V29.744z"/>
	<path d="M20.336,49.293h-0.961v-12h0.961V49.293z"/>
	<path d="M61.985,44.817c0,0.363-0.074,0.682-0.223,0.955s-0.355,0.501-0.621,0.683s-0.585,0.317-0.958,0.407
		s-0.784,0.135-1.233,0.135c-0.203,0-0.405-0.008-0.606-0.023s-0.395-0.035-0.58-0.059s-0.36-0.051-0.524-0.082
		s-0.313-0.064-0.445-0.1v-1.008c0.293,0.109,0.622,0.195,0.987,0.258s0.78,0.094,1.245,0.094c0.336,0,0.622-0.026,0.858-0.079
		s0.43-0.131,0.58-0.234s0.26-0.229,0.328-0.378s0.103-0.318,0.103-0.51c0-0.207-0.058-0.384-0.173-0.53s-0.267-0.277-0.454-0.393
		s-0.401-0.221-0.642-0.316s-0.485-0.194-0.735-0.296s-0.495-0.212-0.735-0.331s-0.454-0.26-0.642-0.422s-0.339-0.353-0.454-0.571
		s-0.173-0.479-0.173-0.779c0-0.262,0.055-0.52,0.164-0.773s0.279-0.479,0.51-0.677s0.526-0.356,0.888-0.478
		s0.792-0.182,1.292-0.182c0.129,0,0.269,0.006,0.419,0.018s0.303,0.028,0.457,0.05s0.307,0.046,0.457,0.073s0.29,0.057,0.419,0.088
		v0.938c-0.301-0.086-0.602-0.151-0.902-0.196s-0.592-0.067-0.873-0.067c-0.598,0-1.037,0.1-1.318,0.299s-0.422,0.467-0.422,0.803
		c0,0.207,0.058,0.385,0.173,0.533s0.267,0.281,0.454,0.398s0.401,0.224,0.642,0.319s0.485,0.194,0.735,0.296
		s0.495,0.213,0.735,0.334s0.454,0.265,0.642,0.431s0.339,0.36,0.454,0.583S61.985,44.512,61.985,44.817z"/>
	<path d="M68.799,43.903c0,0.457-0.064,0.876-0.193,1.257s-0.314,0.707-0.557,0.979s-0.537,0.482-0.885,0.633
		s-0.742,0.226-1.184,0.226c-0.422,0-0.8-0.065-1.134-0.196s-0.617-0.323-0.85-0.577s-0.41-0.568-0.533-0.943
		s-0.185-0.807-0.185-1.295c0-0.457,0.064-0.874,0.193-1.251s0.314-0.701,0.557-0.973s0.537-0.482,0.885-0.633
		s0.742-0.226,1.184-0.226c0.422,0,0.8,0.065,1.134,0.196s0.617,0.322,0.85,0.574s0.41,0.565,0.533,0.94
		S68.799,43.418,68.799,43.903z M67.756,43.95c0-0.363-0.04-0.681-0.12-0.952s-0.194-0.498-0.343-0.68s-0.329-0.318-0.542-0.41
		s-0.45-0.138-0.712-0.138c-0.305,0-0.565,0.06-0.782,0.179s-0.395,0.278-0.533,0.478s-0.24,0.431-0.305,0.694
		s-0.097,0.54-0.097,0.829c0,0.363,0.04,0.682,0.12,0.955s0.194,0.501,0.343,0.683s0.328,0.318,0.539,0.41s0.449,0.138,0.715,0.138
		c0.305,0,0.565-0.06,0.782-0.179s0.395-0.278,0.533-0.478s0.24-0.431,0.305-0.694S67.756,44.243,67.756,43.95z"/>
	<path d="M75.004,46.891H74.09l-0.035-0.949c-0.176,0.203-0.343,0.372-0.501,0.507s-0.315,0.243-0.472,0.325
		s-0.313,0.14-0.472,0.173s-0.325,0.05-0.501,0.05c-0.605,0-1.063-0.178-1.371-0.533s-0.463-0.893-0.463-1.611v-3.844h1.02v3.762
		c0,0.902,0.34,1.354,1.02,1.354c0.125,0,0.247-0.019,0.366-0.056s0.244-0.102,0.375-0.193s0.271-0.216,0.422-0.372
		s0.319-0.354,0.507-0.592v-3.902h1.02V46.891z"/>
	<path d="M77.114,41.008h0.932l0.029,1.084c0.348-0.418,0.69-0.721,1.028-0.908s0.679-0.281,1.022-0.281
		c0.609,0,1.071,0.197,1.386,0.592s0.46,0.98,0.437,1.758h-1.031c0.012-0.516-0.063-0.89-0.226-1.122s-0.399-0.349-0.712-0.349
		c-0.137,0-0.274,0.024-0.413,0.073s-0.281,0.127-0.428,0.234s-0.302,0.245-0.466,0.413s-0.34,0.371-0.527,0.609v3.779h-1.031
		V41.008z"/>
	<path d="M88.042,46.674c-0.266,0.102-0.538,0.177-0.817,0.226s-0.567,0.073-0.864,0.073c-0.93,0-1.646-0.252-2.147-0.756
		s-0.753-1.24-0.753-2.209c0-0.465,0.072-0.887,0.217-1.266s0.348-0.703,0.609-0.973s0.574-0.478,0.938-0.624s0.764-0.22,1.201-0.22
		c0.305,0,0.59,0.021,0.855,0.064s0.52,0.113,0.762,0.211v0.973c-0.254-0.133-0.513-0.229-0.776-0.29s-0.536-0.091-0.817-0.091
		c-0.262,0-0.509,0.05-0.741,0.149s-0.437,0.243-0.612,0.431s-0.314,0.416-0.416,0.686s-0.152,0.574-0.152,0.914
		c0,0.711,0.173,1.243,0.519,1.597s0.825,0.53,1.438,0.53c0.277,0,0.546-0.031,0.806-0.094s0.511-0.156,0.753-0.281V46.674z"/>
	<path d="M95.038,43.639c0,0.145-0.002,0.266-0.006,0.363s-0.01,0.189-0.018,0.275h-4.131c0,0.602,0.168,1.063,0.504,1.386
		s0.82,0.483,1.453,0.483c0.172,0,0.344-0.007,0.516-0.021s0.338-0.032,0.498-0.056s0.313-0.05,0.46-0.079s0.282-0.062,0.407-0.097
		v0.838c-0.277,0.078-0.591,0.142-0.94,0.19s-0.712,0.073-1.087,0.073c-0.504,0-0.938-0.068-1.301-0.205s-0.661-0.335-0.894-0.595
		s-0.404-0.578-0.516-0.955s-0.167-0.804-0.167-1.28c0-0.414,0.06-0.806,0.179-1.175s0.293-0.693,0.521-0.973
		s0.509-0.501,0.841-0.665s0.709-0.246,1.131-0.246c0.41,0,0.773,0.064,1.09,0.193s0.583,0.312,0.8,0.548s0.381,0.523,0.492,0.861
		S95.038,43.221,95.038,43.639z M93.977,43.493c0.012-0.262-0.014-0.501-0.076-0.718s-0.159-0.403-0.29-0.56
		s-0.294-0.278-0.489-0.366s-0.422-0.132-0.68-0.132c-0.223,0-0.426,0.043-0.609,0.129s-0.342,0.207-0.475,0.363
		s-0.24,0.344-0.322,0.563s-0.133,0.459-0.152,0.721H93.977z"/>
	<path d="M139.094,49.293h-0.961v-12h0.961V49.293z"/>
	<path d="M167.875,42.977c0,0.367-0.028,0.719-0.085,1.055s-0.147,0.648-0.272,0.938s-0.287,0.552-0.486,0.788
		s-0.443,0.438-0.732,0.606s-0.625,0.298-1.008,0.39s-0.818,0.138-1.307,0.138h-1.641v-7.658h1.975c1.195,0,2.087,0.308,2.675,0.923
		S167.875,41.711,167.875,42.977z M166.78,43.053c0-0.543-0.051-1.002-0.152-1.377s-0.256-0.678-0.463-0.908
		s-0.467-0.397-0.779-0.501s-0.68-0.155-1.102-0.155h-0.896v5.877h0.779C165.909,45.989,166.78,45.01,166.78,43.053z"/>
	<path d="M174.209,43.639c0,0.145-0.002,0.266-0.006,0.363s-0.01,0.189-0.018,0.275h-4.131c0,0.602,0.168,1.063,0.504,1.386
		s0.82,0.483,1.453,0.483c0.172,0,0.344-0.007,0.516-0.021s0.338-0.032,0.498-0.056s0.313-0.05,0.46-0.079s0.282-0.062,0.407-0.097
		v0.838c-0.277,0.078-0.591,0.142-0.94,0.19s-0.712,0.073-1.087,0.073c-0.504,0-0.938-0.068-1.301-0.205s-0.661-0.335-0.894-0.595
		s-0.404-0.578-0.516-0.955s-0.167-0.804-0.167-1.28c0-0.414,0.06-0.806,0.179-1.175s0.293-0.693,0.521-0.973
		s0.509-0.501,0.841-0.665s0.709-0.246,1.131-0.246c0.41,0,0.773,0.064,1.09,0.193s0.583,0.312,0.8,0.548s0.381,0.523,0.492,0.861
		S174.209,43.221,174.209,43.639z M173.149,43.493c0.012-0.262-0.014-0.501-0.076-0.718s-0.159-0.403-0.29-0.56
		s-0.294-0.278-0.489-0.366s-0.422-0.132-0.68-0.132c-0.223,0-0.426,0.043-0.609,0.129s-0.342,0.207-0.475,0.363
		s-0.24,0.344-0.322,0.563s-0.133,0.459-0.152,0.721H173.149z"/>
	<path d="M180.497,45.286c0,0.207-0.035,0.393-0.105,0.557s-0.166,0.31-0.287,0.437s-0.262,0.235-0.422,0.325
		s-0.331,0.164-0.513,0.223s-0.368,0.102-0.56,0.129s-0.379,0.041-0.563,0.041c-0.398,0-0.765-0.018-1.099-0.053
		s-0.661-0.092-0.981-0.17v-0.938c0.344,0.098,0.686,0.172,1.025,0.223s0.678,0.076,1.014,0.076c0.488,0,0.85-0.066,1.084-0.199
		s0.352-0.322,0.352-0.568c0-0.105-0.019-0.2-0.056-0.284s-0.104-0.164-0.202-0.24s-0.249-0.155-0.454-0.237
		s-0.485-0.176-0.841-0.281c-0.266-0.078-0.511-0.167-0.735-0.267s-0.419-0.218-0.583-0.354s-0.293-0.297-0.387-0.48
		s-0.141-0.4-0.141-0.65c0-0.164,0.038-0.344,0.114-0.539s0.206-0.377,0.39-0.545s0.432-0.308,0.744-0.419s0.703-0.167,1.172-0.167
		c0.23,0,0.486,0.013,0.768,0.038s0.574,0.069,0.879,0.132v0.908c-0.32-0.078-0.624-0.136-0.911-0.173s-0.536-0.056-0.747-0.056
		c-0.254,0-0.468,0.02-0.642,0.059s-0.314,0.093-0.422,0.161s-0.185,0.148-0.231,0.24s-0.07,0.19-0.07,0.296
		s0.021,0.201,0.062,0.287s0.117,0.169,0.229,0.249s0.267,0.16,0.466,0.24s0.459,0.167,0.779,0.261
		c0.348,0.102,0.641,0.208,0.879,0.319s0.432,0.235,0.58,0.372s0.255,0.291,0.319,0.463S180.497,45.067,180.497,45.286z"/>
	<path d="M187.176,46.809c-0.23,0.059-0.469,0.101-0.715,0.126s-0.496,0.038-0.75,0.038c-0.738,0-1.289-0.167-1.652-0.501
		s-0.545-0.847-0.545-1.538v-3.07h-1.646v-0.855h1.646v-1.617l1.02-0.264v1.881h2.643v0.855h-2.643v2.988
		c0,0.422,0.112,0.737,0.337,0.946s0.556,0.313,0.993,0.313c0.188,0,0.393-0.015,0.615-0.044s0.455-0.075,0.697-0.138V46.809z"/>
	<path d="M191.038,41.852h-1.74v-0.844h2.771v5.033h1.752v0.85h-4.717v-0.85h1.934V41.852z M191.395,38.542
		c0.113,0,0.219,0.021,0.316,0.062s0.183,0.099,0.255,0.173s0.129,0.159,0.17,0.255s0.062,0.2,0.062,0.313
		c0,0.109-0.021,0.213-0.062,0.311s-0.098,0.184-0.17,0.258s-0.157,0.132-0.255,0.173s-0.203,0.062-0.316,0.062
		s-0.219-0.021-0.316-0.062s-0.183-0.099-0.255-0.173s-0.129-0.16-0.17-0.258s-0.062-0.201-0.062-0.311
		c0-0.113,0.021-0.218,0.062-0.313s0.098-0.181,0.17-0.255s0.157-0.132,0.255-0.173S191.282,38.542,191.395,38.542z"/>
	<path d="M195.631,41.008h0.908l0.041,0.949c0.172-0.203,0.338-0.372,0.498-0.507s0.317-0.243,0.472-0.325s0.312-0.14,0.472-0.173
		s0.326-0.05,0.498-0.05c0.605,0,1.063,0.179,1.374,0.536s0.466,0.896,0.466,1.614v3.838h-1.02v-3.756
		c0-0.461-0.086-0.802-0.258-1.022s-0.428-0.331-0.768-0.331c-0.125,0-0.247,0.019-0.366,0.056s-0.243,0.102-0.372,0.193
		s-0.269,0.216-0.419,0.372s-0.319,0.352-0.507,0.586v3.902h-1.02V41.008z"/>
	<path d="M206.008,46.891l-0.023-0.791c-0.32,0.316-0.646,0.545-0.976,0.686s-0.677,0.211-1.04,0.211
		c-0.336,0-0.623-0.043-0.861-0.129s-0.435-0.204-0.589-0.354s-0.268-0.327-0.34-0.53s-0.108-0.424-0.108-0.662
		c0-0.59,0.22-1.052,0.659-1.386s1.089-0.501,1.948-0.501h1.219v-0.516c0-0.348-0.111-0.626-0.334-0.835s-0.563-0.313-1.02-0.313
		c-0.332,0-0.659,0.037-0.981,0.111s-0.655,0.18-0.999,0.316v-0.92c0.129-0.047,0.272-0.093,0.431-0.138s0.325-0.085,0.501-0.12
		s0.359-0.063,0.551-0.085s0.385-0.032,0.58-0.032c0.355,0,0.676,0.039,0.961,0.117s0.526,0.197,0.724,0.357
		s0.349,0.361,0.454,0.604s0.158,0.527,0.158,0.855v4.055H206.008z M205.897,44.213h-1.295c-0.254,0-0.473,0.025-0.656,0.076
		s-0.334,0.123-0.451,0.217s-0.204,0.206-0.261,0.337s-0.085,0.278-0.085,0.442c0,0.113,0.018,0.222,0.053,0.325
		s0.092,0.195,0.17,0.275s0.18,0.144,0.305,0.19s0.277,0.07,0.457,0.07c0.234,0,0.503-0.071,0.806-0.214s0.622-0.368,0.958-0.677
		V44.213z"/>
	<path d="M213.567,46.809c-0.23,0.059-0.469,0.101-0.715,0.126s-0.496,0.038-0.75,0.038c-0.738,0-1.289-0.167-1.652-0.501
		s-0.545-0.847-0.545-1.538v-3.07h-1.646v-0.855h1.646v-1.617l1.02-0.264v1.881h2.643v0.855h-2.643v2.988
		c0,0.422,0.112,0.737,0.337,0.946s0.556,0.313,0.993,0.313c0.188,0,0.393-0.015,0.615-0.044s0.455-0.075,0.697-0.138V46.809z"/>
	<path d="M217.428,41.852h-1.74v-0.844h2.771v5.033h1.752v0.85h-4.717v-0.85h1.934V41.852z M217.786,38.542
		c0.113,0,0.219,0.021,0.316,0.062s0.183,0.099,0.255,0.173s0.129,0.159,0.17,0.255s0.062,0.2,0.062,0.313
		c0,0.109-0.021,0.213-0.062,0.311s-0.098,0.184-0.17,0.258s-0.157,0.132-0.255,0.173s-0.203,0.062-0.316,0.062
		s-0.219-0.021-0.316-0.062s-0.183-0.099-0.255-0.173s-0.129-0.16-0.17-0.258s-0.062-0.201-0.062-0.311
		c0-0.113,0.021-0.218,0.062-0.313s0.098-0.181,0.17-0.255s0.157-0.132,0.255-0.173S217.672,38.542,217.786,38.542z"/>
	<path d="M227.143,43.903c0,0.457-0.064,0.876-0.193,1.257s-0.314,0.707-0.557,0.979s-0.537,0.482-0.885,0.633
		s-0.742,0.226-1.184,0.226c-0.422,0-0.8-0.065-1.134-0.196s-0.617-0.323-0.85-0.577s-0.41-0.568-0.533-0.943
		s-0.185-0.807-0.185-1.295c0-0.457,0.064-0.874,0.193-1.251s0.314-0.701,0.557-0.973s0.537-0.482,0.885-0.633
		s0.742-0.226,1.184-0.226c0.422,0,0.8,0.065,1.134,0.196s0.617,0.322,0.85,0.574s0.41,0.565,0.533,0.94
		S227.143,43.418,227.143,43.903z M226.1,43.95c0-0.363-0.04-0.681-0.12-0.952s-0.194-0.498-0.343-0.68s-0.329-0.318-0.542-0.41
		s-0.45-0.138-0.712-0.138c-0.305,0-0.565,0.06-0.782,0.179s-0.395,0.278-0.533,0.478s-0.24,0.431-0.305,0.694
		s-0.097,0.54-0.097,0.829c0,0.363,0.04,0.682,0.12,0.955s0.194,0.501,0.343,0.683s0.328,0.318,0.539,0.41s0.449,0.138,0.715,0.138
		c0.305,0,0.565-0.06,0.782-0.179s0.395-0.278,0.533-0.478s0.24-0.431,0.305-0.694S226.1,44.243,226.1,43.95z"/>
	<path d="M228.62,41.008h0.908l0.041,0.949c0.172-0.203,0.338-0.372,0.498-0.507s0.317-0.243,0.472-0.325s0.312-0.14,0.472-0.173
		s0.326-0.05,0.498-0.05c0.605,0,1.063,0.179,1.374,0.536s0.466,0.896,0.466,1.614v3.838h-1.02v-3.756
		c0-0.461-0.086-0.802-0.258-1.022s-0.428-0.331-0.768-0.331c-0.125,0-0.247,0.019-0.366,0.056s-0.243,0.102-0.372,0.193
		s-0.269,0.216-0.419,0.372s-0.319,0.352-0.507,0.586v3.902h-1.02V41.008z"/>
	<path d="M257.852,49.293h-0.961v-12h0.961V49.293z"/>
	<path d="M20.336,63.694h-0.961v-12h0.961V63.694z"/>
	<path d="M68.694,55.977c0,0.313-0.059,0.622-0.176,0.929s-0.299,0.581-0.545,0.823s-0.561,0.438-0.943,0.589
		s-0.84,0.226-1.371,0.226h-0.949v2.748h-1.043v-7.658h2.156c0.379,0,0.742,0.042,1.09,0.126s0.653,0.22,0.917,0.407
		s0.474,0.43,0.63,0.727S68.694,55.551,68.694,55.977z M67.61,56.024c0-0.492-0.161-0.869-0.483-1.131S66.354,54.5,65.776,54.5
		h-1.066v3.152h0.973c0.617,0,1.093-0.135,1.427-0.404S67.61,56.571,67.61,56.024z"/>
	<path d="M75.397,58.303c0,0.457-0.064,0.876-0.193,1.257s-0.314,0.707-0.557,0.979s-0.537,0.482-0.885,0.633
		s-0.742,0.226-1.184,0.226c-0.422,0-0.8-0.065-1.134-0.196s-0.617-0.323-0.85-0.577s-0.41-0.568-0.533-0.943
		s-0.185-0.807-0.185-1.295c0-0.457,0.064-0.874,0.193-1.251s0.314-0.701,0.557-0.973s0.537-0.482,0.885-0.633
		s0.742-0.226,1.184-0.226c0.422,0,0.8,0.065,1.134,0.196s0.617,0.322,0.85,0.574s0.41,0.565,0.533,0.94
		S75.397,57.819,75.397,58.303z M74.354,58.35c0-0.363-0.04-0.681-0.12-0.952s-0.194-0.498-0.343-0.68s-0.329-0.318-0.542-0.41
		s-0.45-0.138-0.712-0.138c-0.305,0-0.565,0.06-0.782,0.179s-0.395,0.278-0.533,0.478s-0.24,0.431-0.305,0.694
		s-0.097,0.54-0.097,0.829c0,0.363,0.04,0.682,0.12,0.955s0.194,0.501,0.343,0.683s0.328,0.318,0.539,0.41s0.449,0.138,0.715,0.138
		c0.305,0,0.565-0.06,0.782-0.179s0.395-0.278,0.533-0.478s0.24-0.431,0.305-0.694S74.354,58.643,74.354,58.35z"/>
	<path d="M77.114,55.409h0.932l0.029,1.084c0.348-0.418,0.69-0.721,1.028-0.908s0.679-0.281,1.022-0.281
		c0.609,0,1.071,0.197,1.386,0.592s0.46,0.98,0.437,1.758h-1.031c0.012-0.516-0.063-0.89-0.226-1.122s-0.399-0.349-0.712-0.349
		c-0.137,0-0.274,0.024-0.413,0.073s-0.281,0.127-0.428,0.234s-0.302,0.245-0.466,0.413s-0.34,0.371-0.527,0.609v3.779h-1.031
		V55.409z"/>
	<path d="M88.211,61.209c-0.23,0.059-0.469,0.101-0.715,0.126s-0.496,0.038-0.75,0.038c-0.738,0-1.289-0.167-1.652-0.501
		s-0.545-0.847-0.545-1.538v-3.07h-1.646v-0.855h1.646v-1.617l1.02-0.264v1.881h2.643v0.855h-2.643v2.988
		c0,0.422,0.112,0.737,0.337,0.946s0.556,0.313,0.993,0.313c0.188,0,0.393-0.015,0.615-0.044s0.455-0.075,0.697-0.138V61.209z"/>
	<path d="M139.094,63.694h-0.961v-12h0.961V63.694z"/>
	<path d="M187.452,55.977c0,0.313-0.059,0.622-0.176,0.929s-0.299,0.581-0.545,0.823s-0.561,0.438-0.943,0.589
		s-0.84,0.226-1.371,0.226h-0.949v2.748h-1.043v-7.658h2.156c0.379,0,0.742,0.042,1.09,0.126s0.653,0.22,0.917,0.407
		s0.474,0.43,0.63,0.727S187.452,55.551,187.452,55.977z M186.368,56.024c0-0.492-0.161-0.869-0.483-1.131s-0.772-0.393-1.351-0.393
		h-1.066v3.152h0.973c0.617,0,1.093-0.135,1.427-0.404S186.368,56.571,186.368,56.024z"/>
	<path d="M194.155,58.303c0,0.457-0.064,0.876-0.193,1.257s-0.314,0.707-0.557,0.979s-0.537,0.482-0.885,0.633
		s-0.742,0.226-1.184,0.226c-0.422,0-0.8-0.065-1.134-0.196s-0.617-0.323-0.85-0.577s-0.41-0.568-0.533-0.943
		s-0.185-0.807-0.185-1.295c0-0.457,0.064-0.874,0.193-1.251s0.314-0.701,0.557-0.973s0.537-0.482,0.885-0.633
		s0.742-0.226,1.184-0.226c0.422,0,0.8,0.065,1.134,0.196s0.617,0.322,0.85,0.574s0.41,0.565,0.533,0.94
		S194.155,57.819,194.155,58.303z M193.112,58.35c0-0.363-0.04-0.681-0.12-0.952s-0.194-0.498-0.343-0.68s-0.329-0.318-0.542-0.41
		s-0.45-0.138-0.712-0.138c-0.305,0-0.565,0.06-0.782,0.179s-0.395,0.278-0.533,0.478s-0.24,0.431-0.305,0.694
		s-0.097,0.54-0.097,0.829c0,0.363,0.04,0.682,0.12,0.955s0.194,0.501,0.343,0.683s0.328,0.318,0.539,0.41s0.449,0.138,0.715,0.138
		c0.305,0,0.565-0.06,0.782-0.179s0.395-0.278,0.533-0.478s0.24-0.431,0.305-0.694S193.112,58.643,193.112,58.35z"/>
	<path d="M195.872,55.409h0.932l0.029,1.084c0.348-0.418,0.69-0.721,1.028-0.908s0.679-0.281,1.022-0.281
		c0.609,0,1.071,0.197,1.386,0.592s0.46,0.98,0.437,1.758h-1.031c0.012-0.516-0.063-0.89-0.226-1.122s-0.399-0.349-0.712-0.349
		c-0.137,0-0.274,0.024-0.413,0.073s-0.281,0.127-0.428,0.234s-0.302,0.245-0.466,0.413s-0.34,0.371-0.527,0.609v3.779h-1.031
		V55.409z"/>
	<path d="M206.969,61.209c-0.23,0.059-0.469,0.101-0.715,0.126s-0.496,0.038-0.75,0.038c-0.738,0-1.289-0.167-1.652-0.501
		s-0.545-0.847-0.545-1.538v-3.07h-1.646v-0.855h1.646v-1.617l1.02-0.264v1.881h2.643v0.855h-2.643v2.988
		c0,0.422,0.112,0.737,0.337,0.946s0.556,0.313,0.993,0.313c0.188,0,0.393-0.015,0.615-0.044s0.455-0.075,0.697-0.138V61.209z"/>
	<path d="M257.852,63.694h-0.961v-12h0.961V63.694z"/>
	<path d="M22.663,72.943H20.36v2.391h-1.008v-2.391h-2.303v-0.891h2.303v-2.373h1.008v2.373h2.303V72.943z"/>
	<path d="M28.206,72.978h-3.504v-0.961h3.504V72.978z"/>
	<path d="M34.803,72.978h-3.504v-0.961h3.504V72.978z"/>
	<path d="M41.401,72.978h-3.504v-0.961h3.504V72.978z"/>
	<path d="M47.999,72.978h-3.504v-0.961h3.504V72.978z"/>
	<path d="M54.596,72.978h-3.504v-0.961h3.504V72.978z"/>
	<path d="M61.194,72.978H57.69v-0.961h3.504V72.978z"/>
	<path d="M67.792,72.978h-3.504v-0.961h3.504V72.978z"/>
	<path d="M74.389,72.978h-3.504v-0.961h3.504V72.978z"/>
	<path d="M82.042,72.943h-2.303v2.391h-1.008v-2.391h-2.303v-0.891h2.303v-2.373h1.008v2.373h2.303V72.943z"/>
	<path d="M87.584,72.978h-3.504v-0.961h3.504V72.978z"/>
	<path d="M94.182,72.978h-3.504v-0.961h3.504V72.978z"/>
	<path d="M100.78,72.978h-3.504v-0.961h3.504V72.978z"/>
	<path d="M107.377,72.978h-3.504v-0.961h3.504V72.978z"/>
	<path d="M113.975,72.978h-3.504v-0.961h3.504V72.978z"/>
	<path d="M120.573,72.978h-3.504v-0.961h3.504V72.978z"/>
	<path d="M127.17,72.978h-3.504v-0.961h3.504V72.978z"/>
	<path d="M133.768,72.978h-3.504v-0.961h3.504V72.978z"/>
	<path d="M141.42,72.943h-2.303v2.391h-1.008v-2.391h-2.303v-0.891h2.303v-2.373h1.008v2.373h2.303V72.943z"/>
	<path d="M146.963,72.978h-3.504v-0.961h3.504V72.978z"/>
	<path d="M153.561,72.978h-3.504v-0.961h3.504V72.978z"/>
	<path d="M160.159,72.978h-3.504v-0.961h3.504V72.978z"/>
	<path d="M166.756,72.978h-3.504v-0.961h3.504V72.978z"/>
	<path d="M173.354,72.978h-3.504v-0.961h3.504V72.978z"/>
	<path d="M179.952,72.978h-3.504v-0.961h3.504V72.978z"/>
	<path d="M186.549,72.978h-3.504v-0.961h3.504V72.978z"/>
	<path d="M193.147,72.978h-3.504v-0.961h3.504V72.978z"/>
	<path d="M200.799,72.943h-2.303v2.391h-1.008v-2.391h-2.303v-0.891h2.303v-2.373h1.008v2.373h2.303V72.943z"/>
	<path d="M206.342,72.978h-3.504v-0.961h3.504V72.978z"/>
	<path d="M212.94,72.978h-3.504v-0.961h3.504V72.978z"/>
	<path d="M219.538,72.978h-3.504v-0.961h3.504V72.978z"/>
	<path d="M226.135,72.978h-3.504v-0.961h3.504V72.978z"/>
	<path d="M232.733,72.978h-3.504v-0.961h3.504V72.978z"/>
	<path d="M239.331,72.978h-3.504v-0.961h3.504V72.978z"/>
	<path d="M245.928,72.978h-3.504v-0.961h3.504V72.978z"/>
	<path d="M252.526,72.978h-3.504v-0.961h3.504V72.978z"/>
	<path d="M260.178,72.943h-2.303v2.391h-1.008v-2.391h-2.303v-0.891h2.303v-2.373h1.008v2.373h2.303V72.943z"/>
	<path d="M20.336,92.494h-0.961v-12h0.961V92.494z"/>
	<path d="M139.094,92.494h-0.961v-12h0.961V92.494z"/>
	<path d="M257.852,92.494h-0.961v-12h0.961V92.494z"/>
	<path d="M20.336,106.895h-0.961v-12h0.961V106.895z"/>
	<path d="M61.915,104.492h-4.406v-7.658h1.061v6.768h3.346V104.492z"/>
	<path d="M68.647,101.24c0,0.145-0.002,0.266-0.006,0.363s-0.01,0.189-0.018,0.275h-4.131c0,0.602,0.168,1.063,0.504,1.385
		s0.82,0.484,1.453,0.484c0.172,0,0.344-0.008,0.516-0.021s0.338-0.031,0.498-0.055s0.313-0.051,0.46-0.08s0.282-0.061,0.407-0.096
		v0.838c-0.277,0.078-0.591,0.141-0.94,0.189s-0.712,0.074-1.087,0.074c-0.504,0-0.938-0.068-1.301-0.205s-0.661-0.336-0.894-0.596
		s-0.404-0.578-0.516-0.955s-0.167-0.803-0.167-1.279c0-0.414,0.06-0.807,0.179-1.176s0.293-0.693,0.521-0.973
		s0.509-0.5,0.841-0.664s0.709-0.246,1.131-0.246c0.41,0,0.773,0.064,1.09,0.193s0.583,0.311,0.8,0.547s0.381,0.523,0.492,0.861
		S68.647,100.822,68.647,101.24z M67.586,101.094c0.012-0.262-0.014-0.502-0.076-0.719s-0.159-0.402-0.29-0.559
		s-0.294-0.279-0.489-0.367s-0.422-0.131-0.68-0.131c-0.223,0-0.426,0.043-0.609,0.129s-0.342,0.207-0.475,0.363
		s-0.24,0.344-0.322,0.563s-0.133,0.459-0.152,0.721H67.586z"/>
	<path d="M70.276,98.609h0.908l0.041,0.949c0.172-0.203,0.338-0.373,0.498-0.508s0.317-0.242,0.472-0.324s0.312-0.141,0.472-0.174
		s0.326-0.049,0.498-0.049c0.605,0,1.063,0.178,1.374,0.535s0.466,0.896,0.466,1.615v3.838h-1.02v-3.756
		c0-0.461-0.086-0.803-0.258-1.023s-0.428-0.33-0.768-0.33c-0.125,0-0.247,0.018-0.366,0.055s-0.243,0.102-0.372,0.193
		s-0.269,0.217-0.419,0.373s-0.319,0.352-0.507,0.586v3.902h-1.02V98.609z"/>
	<path d="M81.11,99.441c0.109,0.137,0.194,0.295,0.255,0.477s0.091,0.379,0.091,0.59c0,0.305-0.056,0.582-0.167,0.834
		s-0.269,0.469-0.472,0.648s-0.446,0.318-0.729,0.418s-0.595,0.15-0.935,0.15c-0.246,0-0.477-0.027-0.691-0.08
		s-0.385-0.117-0.51-0.195c-0.074,0.109-0.137,0.213-0.188,0.311s-0.076,0.207-0.076,0.328c0,0.148,0.071,0.271,0.214,0.369
		s0.331,0.15,0.565,0.158l1.547,0.059c0.293,0.008,0.563,0.045,0.812,0.111s0.461,0.162,0.639,0.287s0.316,0.279,0.416,0.463
		s0.149,0.396,0.149,0.639c0,0.262-0.057,0.51-0.17,0.744s-0.288,0.439-0.524,0.617s-0.536,0.32-0.899,0.426
		s-0.795,0.158-1.295,0.158c-0.477,0-0.882-0.039-1.216-0.115s-0.608-0.182-0.823-0.316s-0.371-0.295-0.469-0.48
		s-0.146-0.389-0.146-0.611c0-0.285,0.066-0.535,0.199-0.75s0.338-0.422,0.615-0.621c-0.102-0.047-0.189-0.105-0.264-0.176
		s-0.135-0.148-0.182-0.232s-0.082-0.172-0.105-0.266s-0.035-0.186-0.035-0.275c0-0.254,0.06-0.486,0.179-0.697
		s0.261-0.41,0.425-0.598c-0.074-0.09-0.14-0.178-0.196-0.264s-0.105-0.18-0.146-0.279s-0.072-0.207-0.094-0.322
		s-0.032-0.246-0.032-0.395c0-0.305,0.056-0.584,0.167-0.836s0.268-0.467,0.469-0.646s0.443-0.32,0.727-0.42s0.597-0.148,0.94-0.148
		c0.145,0,0.283,0.01,0.416,0.029s0.25,0.045,0.352,0.076h2.133v0.832H81.11z M77.571,105.342c0,0.277,0.145,0.479,0.434,0.605
		s0.691,0.191,1.207,0.191c0.324,0,0.597-0.029,0.817-0.088s0.398-0.137,0.533-0.232s0.231-0.205,0.29-0.328
		s0.088-0.248,0.088-0.377c0-0.238-0.098-0.414-0.293-0.527s-0.494-0.18-0.896-0.199l-1.535-0.053
		c-0.129,0.086-0.235,0.17-0.319,0.252s-0.149,0.164-0.196,0.248s-0.08,0.168-0.1,0.252S77.571,105.256,77.571,105.342z
		 M77.881,100.531c0,0.188,0.031,0.359,0.094,0.516s0.15,0.289,0.264,0.398s0.247,0.193,0.401,0.254s0.325,0.092,0.513,0.092
		c0.203,0,0.384-0.035,0.542-0.104s0.291-0.16,0.398-0.277s0.189-0.252,0.246-0.404s0.085-0.311,0.085-0.475
		c0-0.188-0.031-0.359-0.094-0.516s-0.15-0.289-0.264-0.398s-0.247-0.195-0.401-0.256s-0.325-0.09-0.513-0.09
		c-0.203,0-0.384,0.035-0.542,0.105s-0.291,0.162-0.398,0.277s-0.189,0.25-0.246,0.402S77.881,100.367,77.881,100.531z"/>
	<path d="M88.211,104.41c-0.23,0.059-0.469,0.1-0.715,0.125s-0.496,0.039-0.75,0.039c-0.738,0-1.289-0.168-1.652-0.502
		s-0.545-0.846-0.545-1.537v-3.07h-1.646v-0.855h1.646v-1.617l1.02-0.264v1.881h2.643v0.855h-2.643v2.988
		c0,0.422,0.112,0.736,0.337,0.945s0.556,0.314,0.993,0.314c0.188,0,0.393-0.016,0.615-0.045s0.455-0.074,0.697-0.137V104.41z"/>
	<path d="M94.797,104.492h-1.02v-3.756c0-0.453-0.085-0.793-0.255-1.018s-0.413-0.336-0.729-0.336c-0.137,0-0.265,0.018-0.384,0.055
		s-0.243,0.102-0.372,0.193s-0.27,0.217-0.422,0.373s-0.328,0.352-0.527,0.586v3.902h-1.02v-8.279h1.02v2.396l-0.035,0.926
		c0.16-0.191,0.317-0.354,0.472-0.484s0.309-0.236,0.463-0.318s0.312-0.141,0.472-0.176s0.326-0.053,0.498-0.053
		c0.586,0,1.039,0.178,1.359,0.535s0.48,0.896,0.48,1.615V104.492z"/>
	<path d="M139.094,106.895h-0.961v-12h0.961V106.895z"/>
	<path d="M174.133,104.205c-0.613,0.254-1.256,0.381-1.928,0.381c-1.082,0-1.913-0.324-2.493-0.971s-0.87-1.602-0.87-2.867
		c0-0.613,0.08-1.168,0.24-1.664s0.389-0.918,0.686-1.264s0.656-0.611,1.078-0.799s0.895-0.281,1.418-0.281
		c0.355,0,0.686,0.029,0.99,0.09s0.598,0.154,0.879,0.279v1.025c-0.277-0.152-0.564-0.27-0.861-0.35s-0.621-0.119-0.973-0.119
		c-0.359,0-0.685,0.066-0.976,0.201s-0.538,0.33-0.741,0.586s-0.359,0.568-0.469,0.938s-0.164,0.791-0.164,1.264
		c0,0.992,0.201,1.74,0.604,2.244s0.992,0.756,1.77,0.756c0.328,0,0.643-0.039,0.943-0.115s0.59-0.182,0.867-0.318V104.205z"/>
	<path d="M180.567,104.492h-1.02v-3.756c0-0.453-0.085-0.793-0.255-1.018s-0.413-0.336-0.729-0.336
		c-0.137,0-0.265,0.018-0.384,0.055s-0.243,0.102-0.372,0.193s-0.27,0.217-0.422,0.373s-0.328,0.352-0.527,0.586v3.902h-1.02v-8.279
		h1.02v2.396l-0.035,0.926c0.16-0.191,0.317-0.354,0.472-0.484s0.309-0.236,0.463-0.318s0.312-0.141,0.472-0.176
		s0.326-0.053,0.498-0.053c0.586,0,1.039,0.178,1.359,0.535s0.48,0.896,0.48,1.615V104.492z"/>
	<path d="M187.405,101.24c0,0.145-0.002,0.266-0.006,0.363s-0.01,0.189-0.018,0.275h-4.131c0,0.602,0.168,1.063,0.504,1.385
		s0.82,0.484,1.453,0.484c0.172,0,0.344-0.008,0.516-0.021s0.338-0.031,0.498-0.055s0.313-0.051,0.46-0.08s0.282-0.061,0.407-0.096
		v0.838c-0.277,0.078-0.591,0.141-0.94,0.189s-0.712,0.074-1.087,0.074c-0.504,0-0.938-0.068-1.301-0.205s-0.661-0.336-0.894-0.596
		s-0.404-0.578-0.516-0.955s-0.167-0.803-0.167-1.279c0-0.414,0.06-0.807,0.179-1.176s0.293-0.693,0.521-0.973
		s0.509-0.5,0.841-0.664s0.709-0.246,1.131-0.246c0.41,0,0.773,0.064,1.09,0.193s0.583,0.311,0.8,0.547s0.381,0.523,0.492,0.861
		S187.405,100.822,187.405,101.24z M186.344,101.094c0.012-0.262-0.014-0.502-0.076-0.719s-0.159-0.402-0.29-0.559
		s-0.294-0.279-0.489-0.367s-0.422-0.131-0.68-0.131c-0.223,0-0.426,0.043-0.609,0.129s-0.342,0.207-0.475,0.363
		s-0.24,0.344-0.322,0.563s-0.133,0.459-0.152,0.721H186.344z"/>
	<path d="M193.604,104.275c-0.266,0.102-0.538,0.176-0.817,0.225s-0.567,0.074-0.864,0.074c-0.93,0-1.646-0.252-2.147-0.756
		s-0.753-1.24-0.753-2.209c0-0.465,0.072-0.887,0.217-1.266s0.348-0.703,0.609-0.973s0.574-0.479,0.938-0.625
		s0.764-0.219,1.201-0.219c0.305,0,0.59,0.021,0.855,0.064s0.52,0.113,0.762,0.211v0.973c-0.254-0.133-0.513-0.23-0.776-0.291
		s-0.536-0.09-0.817-0.09c-0.262,0-0.509,0.049-0.741,0.148s-0.437,0.244-0.612,0.432s-0.314,0.416-0.416,0.686
		s-0.152,0.574-0.152,0.914c0,0.711,0.173,1.242,0.519,1.596s0.825,0.531,1.438,0.531c0.277,0,0.546-0.031,0.806-0.094
		s0.511-0.156,0.753-0.281V104.275z"/>
	<path d="M200.922,104.492h-1.4l-2.742-3.152v3.152h-1.02v-8.279h1.02v5.086l2.643-2.689h1.348l-2.76,2.713L200.922,104.492z"/>
	<path d="M206.887,102.887c0,0.207-0.035,0.393-0.105,0.557s-0.166,0.309-0.287,0.436s-0.262,0.236-0.422,0.326
		s-0.331,0.164-0.513,0.223s-0.368,0.102-0.56,0.129s-0.379,0.041-0.563,0.041c-0.398,0-0.765-0.018-1.099-0.053
		s-0.661-0.092-0.981-0.17v-0.938c0.344,0.098,0.686,0.172,1.025,0.223s0.678,0.076,1.014,0.076c0.488,0,0.85-0.066,1.084-0.199
		s0.352-0.322,0.352-0.568c0-0.105-0.019-0.201-0.056-0.285s-0.104-0.164-0.202-0.24s-0.249-0.154-0.454-0.236
		s-0.485-0.176-0.841-0.281c-0.266-0.078-0.511-0.168-0.735-0.268s-0.419-0.217-0.583-0.354s-0.293-0.297-0.387-0.48
		s-0.141-0.4-0.141-0.65c0-0.164,0.038-0.344,0.114-0.539s0.206-0.377,0.39-0.545s0.432-0.309,0.744-0.42s0.703-0.166,1.172-0.166
		c0.23,0,0.486,0.012,0.768,0.037s0.574,0.07,0.879,0.133v0.908c-0.32-0.078-0.624-0.137-0.911-0.174s-0.536-0.055-0.747-0.055
		c-0.254,0-0.468,0.02-0.642,0.059s-0.314,0.092-0.422,0.16s-0.185,0.148-0.231,0.24s-0.07,0.191-0.07,0.297
		s0.021,0.201,0.062,0.287s0.117,0.168,0.229,0.248s0.267,0.16,0.466,0.24s0.459,0.168,0.779,0.262
		c0.348,0.102,0.641,0.207,0.879,0.318s0.432,0.236,0.58,0.373s0.255,0.291,0.319,0.463S206.887,102.668,206.887,102.887z"/>
	<path d="M213.555,104.492h-0.914l-0.035-0.949c-0.176,0.203-0.343,0.371-0.501,0.506s-0.315,0.244-0.472,0.326
		s-0.313,0.139-0.472,0.172s-0.325,0.051-0.501,0.051c-0.605,0-1.063-0.178-1.371-0.533s-0.463-0.893-0.463-1.611v-3.844h1.02v3.762
		c0,0.902,0.34,1.354,1.02,1.354c0.125,0,0.247-0.02,0.366-0.057s0.244-0.102,0.375-0.193s0.271-0.215,0.422-0.371
		s0.319-0.354,0.507-0.592v-3.902h1.02V104.492z"/>
	<path d="M219.62,104.492v-4.225c0-0.184-0.007-0.334-0.021-0.451s-0.035-0.211-0.064-0.279s-0.066-0.115-0.111-0.143
		s-0.101-0.041-0.167-0.041c-0.078,0-0.15,0.023-0.217,0.07s-0.138,0.123-0.214,0.229s-0.16,0.244-0.252,0.418
		s-0.2,0.389-0.325,0.643v3.779h-0.932v-4.113c0-0.215-0.007-0.389-0.021-0.521s-0.035-0.236-0.064-0.311s-0.067-0.125-0.114-0.152
		s-0.104-0.041-0.17-0.041c-0.07,0-0.137,0.02-0.199,0.059s-0.132,0.109-0.208,0.211s-0.161,0.24-0.255,0.416
		s-0.205,0.4-0.334,0.674v3.779h-0.938v-5.883h0.779l0.047,1.119c0.102-0.223,0.2-0.412,0.296-0.568s0.194-0.283,0.296-0.379
		s0.21-0.166,0.325-0.211s0.243-0.066,0.384-0.066c0.316,0,0.557,0.104,0.721,0.311s0.246,0.527,0.246,0.961
		c0.094-0.203,0.186-0.385,0.275-0.543s0.187-0.291,0.29-0.398s0.218-0.189,0.343-0.246s0.27-0.084,0.434-0.084
		c0.738,0,1.107,0.568,1.107,1.705v4.283H219.62z"/>
	<path d="M257.852,106.895h-0.961v-12h0.961V106.895z"/>
	<path d="M22.663,116.143H20.36v2.391h-1.008v-2.391h-2.303v-0.891h2.303v-2.373h1.008v2.373h2.303V116.143z"/>
	<path d="M28.206,116.178h-3.504v-0.961h3.504V116.178z"/>
	<path d="M34.803,116.178h-3.504v-0.961h3.504V116.178z"/>
	<path d="M41.401,116.178h-3.504v-0.961h3.504V116.178z"/>
	<path d="M47.999,116.178h-3.504v-0.961h3.504V116.178z"/>
	<path d="M54.596,116.178h-3.504v-0.961h3.504V116.178z"/>
	<path d="M61.194,116.178H57.69v-0.961h3.504V116.178z"/>
	<path d="M67.792,116.178h-3.504v-0.961h3.504V116.178z"/>
	<path d="M74.389,116.178h-3.504v-0.961h3.504V116.178z"/>
	<path d="M82.042,116.143h-2.303v2.391h-1.008v-2.391h-2.303v-0.891h2.303v-2.373h1.008v2.373h2.303V116.143z"/>
	<path d="M87.584,116.178h-3.504v-0.961h3.504V116.178z"/>
	<path d="M94.182,116.178h-3.504v-0.961h3.504V116.178z"/>
	<path d="M100.78,116.178h-3.504v-0.961h3.504V116.178z"/>
	<path d="M107.377,116.178h-3.504v-0.961h3.504V116.178z"/>
	<path d="M113.975,116.178h-3.504v-0.961h3.504V116.178z"/>
	<path d="M120.573,116.178h-3.504v-0.961h3.504V116.178z"/>
	<path d="M127.17,116.178h-3.504v-0.961h3.504V116.178z"/>
	<path d="M133.768,116.178h-3.504v-0.961h3.504V116.178z"/>
	<path d="M141.42,116.143h-2.303v2.391h-1.008v-2.391h-2.303v-0.891h2.303v-2.373h1.008v2.373h2.303V116.143z"/>
	<path d="M146.963,116.178h-3.504v-0.961h3.504V116.178z"/>
	<path d="M153.561,116.178h-3.504v-0.961h3.504V116.178z"/>
	<path d="M160.159,116.178h-3.504v-0.961h3.504V116.178z"/>
	<path d="M166.756,116.178h-3.504v-0.961h3.504V116.178z"/>
	<path d="M173.354,116.178h-3.504v-0.961h3.504V116.178z"/>
	<path d="M179.952,116.178h-3.504v-0.961h3.504V116.178z"/>
	<path d="M186.549,116.178h-3.504v-0.961h3.504V116.178z"/>
	<path d="M193.147,116.178h-3.504v-0.961h3.504V116.178z"/>
	<path d="M200.799,116.143h-2.303v2.391h-1.008v-2.391h-2.303v-0.891h2.303v-2.373h1.008v2.373h2.303V116.143z"/>
	<path d="M206.342,116.178h-3.504v-0.961h3.504V116.178z"/>
	<path d="M212.94,116.178h-3.504v-0.961h3.504V116.178z"/>
	<path d="M219.538,116.178h-3.504v-0.961h3.504V116.178z"/>
	<path d="M226.135,116.178h-3.504v-0.961h3.504V116.178z"/>
	<path d="M232.733,116.178h-3.504v-0.961h3.504V116.178z"/>
	<path d="M239.331,116.178h-3.504v-0.961h3.504V116.178z"/>
	<path d="M245.928,116.178h-3.504v-0.961h3.504V116.178z"/>
	<path d="M252.526,116.178h-3.504v-0.961h3.504V116.178z"/>
	<path d="M260.178,116.143h-2.303v2.391h-1.008v-2.391h-2.303v-0.891h2.303v-2.373h1.008v2.373h2.303V116.143z"/>
</g>
</svg>
